<svg width="263" height="228" viewBox="0 0 263 228" fill="none" xmlns="http://www.w3.org/2000/svg">
<path d="M33.0218 3L46.0218 11L89.8452 0L132.022 24L65.3452 42L23.3452 17.5L33.0218 3Z" fill="#EE1616"/>
<path d="M229.522 3L216.522 11L172.845 0L130.522 24L196.345 41.5L238.345 18L229.522 3Z" fill="#EE1616"/>
<path d="M106.952 217.632L106.952 200.955L74.9193 169.5L74.9193 120.091L124.074 170.737L124.074 217.632L106.952 217.632Z" fill="#EE1616"/>
<path d="M7.84525 46.5L21.8452 55L32.8452 97L75.6739 121.387L57.8452 55L16.8452 31L7.84525 46.5Z" fill="#EE1616"/>
<path d="M254.008 46.3329L240.554 53.5419L229.345 96L186.845 121.5L204.345 55.5L247.122 31.3303L254.008 46.3329Z" fill="#EE1616"/>
<path d="M155.845 218.5L155.845 201L187.845 169L186.845 121.5L138.845 169L138.845 218.5L155.845 218.5Z" fill="#EE1616"/>
</svg>
