<svg width="902" height="219" viewBox="0 0 902 219" fill="none" xmlns="http://www.w3.org/2000/svg">
<path d="M25.1766 3L38.1766 11L82 0L124.177 24L57.5 42L15.5 17.5L25.1766 3Z" fill="#EE1616"/>
<path d="M221.677 3L208.677 11L165 0L122.677 24L188.5 41.5L230.5 18L221.677 3Z" fill="#EE1616"/>
<path d="M99.1066 217.632V200.955L67.0741 169.5L67.0741 120.091L116.229 170.737L116.229 217.632L99.1066 217.632Z" fill="#EE1616"/>
<path d="M0 46.5L14 55L25 97L67.8287 121.387L50 55L9 31L0 46.5Z" fill="#EE1616"/>
<path d="M246.163 46.3329L232.708 53.5419L221.5 96L179 121.5L196.5 55.5L239.277 31.3303L246.163 46.3329Z" fill="#EE1616"/>
<path d="M148 218.5V201L180 169L179 121.5L131 169V218.5H148Z" fill="#EE1616"/>
<path d="M305.255 211.974C300.388 211.974 296.455 210.707 293.455 208.174C290.521 205.707 289.055 202.44 289.055 198.374C289.055 195.84 289.655 193.507 290.855 191.374C292.055 189.24 293.688 187.574 295.755 186.374C297.822 185.107 300.088 184.474 302.555 184.474C305.088 184.474 307.121 185.107 308.655 186.374C310.255 187.64 311.055 189.307 311.055 191.374C311.055 192.974 310.688 194.24 309.955 195.174C309.355 194.374 308.521 193.74 307.455 193.274C306.455 192.807 305.388 192.574 304.255 192.574C302.255 192.574 300.621 193.24 299.355 194.574C298.088 195.907 297.455 197.64 297.455 199.774C297.455 201.907 298.055 203.64 299.255 204.974C300.521 206.307 302.088 206.974 303.955 206.974C306.288 206.974 308.288 205.94 309.955 203.874C311.621 201.807 312.888 198.74 313.755 194.674L318.755 172.574H318.355C316.555 175.107 314.355 177.04 311.755 178.374C309.221 179.707 306.422 180.374 303.355 180.374C299.488 180.374 296.088 179.34 293.155 177.274C290.221 175.207 287.955 172.274 286.355 168.474C284.822 164.607 284.055 160.14 284.055 155.074C284.055 147.74 285.655 141.074 288.855 135.074C292.055 129.007 296.455 124.24 302.055 120.774C307.655 117.307 313.821 115.574 320.555 115.574C326.221 115.574 330.688 116.807 333.955 119.274C337.288 121.74 338.955 125.107 338.955 129.374C338.955 132.24 338.255 134.54 336.855 136.274C335.455 138.007 333.621 138.874 331.355 138.874C330.088 138.874 328.888 138.607 327.755 138.074C326.688 137.54 325.788 136.774 325.055 135.774C326.255 134.974 327.255 133.707 328.055 131.974C328.921 130.174 329.355 128.374 329.355 126.574C329.355 124.574 328.755 123.04 327.555 121.974C326.421 120.84 324.788 120.274 322.655 120.274C318.788 120.274 315.055 122.007 311.455 125.474C307.855 128.874 304.955 133.34 302.755 138.874C300.555 144.407 299.455 150.207 299.455 156.274C299.455 161.274 300.255 165.107 301.855 167.774C303.455 170.374 305.755 171.674 308.755 171.674C312.355 171.674 315.521 169.774 318.255 165.974C321.055 162.174 323.288 156.64 324.955 149.374L336.755 149.474L329.455 183.074C327.321 193.007 324.288 200.307 320.355 204.974C316.488 209.64 311.455 211.974 305.255 211.974Z" fill="#EE1616"/>
<path d="M351.967 191.874C348.167 191.874 345.001 190.574 342.467 187.974C339.934 185.374 338.667 181.307 338.667 175.774C338.667 170.84 339.634 165.674 341.567 160.274C343.567 154.807 346.501 150.207 350.367 146.474C354.301 142.674 358.967 140.774 364.367 140.774C367.101 140.774 369.134 141.24 370.467 142.174C371.801 143.107 372.467 144.34 372.467 145.874V146.574L373.567 141.274H387.967L380.767 175.274C380.501 176.274 380.367 177.34 380.367 178.474C380.367 181.34 381.734 182.774 384.467 182.774C386.334 182.774 387.934 181.907 389.267 180.174C390.667 178.44 391.767 176.174 392.567 173.374H396.767C394.301 180.574 391.234 185.474 387.567 188.074C383.967 190.607 380.334 191.874 376.667 191.874C373.867 191.874 371.601 191.107 369.867 189.574C368.201 187.974 367.201 185.674 366.867 182.674C364.934 185.407 362.767 187.64 360.367 189.374C358.034 191.04 355.234 191.874 351.967 191.874ZM358.467 182.174C360.134 182.174 361.767 181.407 363.367 179.874C365.034 178.274 366.167 176.107 366.767 173.374L371.567 150.774C371.567 149.907 371.234 149.074 370.567 148.274C369.901 147.407 368.867 146.974 367.467 146.974C364.801 146.974 362.401 148.54 360.267 151.674C358.134 154.74 356.467 158.474 355.267 162.874C354.067 167.207 353.467 171.04 353.467 174.374C353.467 177.707 353.934 179.84 354.867 180.774C355.867 181.707 357.067 182.174 358.467 182.174Z" fill="#EE1616"/>
<path d="M453.404 191.874C449.337 191.874 446.337 190.807 444.404 188.674C442.537 186.474 441.604 183.774 441.604 180.574C441.604 179.174 441.771 177.607 442.104 175.874C442.437 174.074 442.771 172.34 443.104 170.674C443.504 169.007 443.771 167.94 443.904 167.474C444.437 165.14 444.937 162.84 445.404 160.574C445.871 158.307 446.104 156.474 446.104 155.074C446.104 151.674 444.904 149.974 442.504 149.974C440.771 149.974 439.237 150.84 437.904 152.574C436.571 154.24 435.504 156.44 434.704 159.174L427.904 191.274H413.504L420.804 156.774C421.004 155.974 421.104 155.14 421.104 154.274C421.104 151.34 420.104 149.874 418.104 149.874C416.237 149.874 414.604 150.74 413.204 152.474C411.871 154.14 410.804 156.374 410.004 159.174L403.204 191.274H388.804L399.404 141.274H413.804L412.704 146.474C416.104 142.674 420.171 140.774 424.904 140.774C430.771 140.774 434.204 143.64 435.204 149.374C438.871 143.707 443.504 140.874 449.104 140.874C452.504 140.874 455.204 141.807 457.204 143.674C459.204 145.54 460.204 148.374 460.204 152.174C460.204 154.107 459.971 156.274 459.504 158.674C459.037 161.007 458.371 163.874 457.504 167.274C456.971 169.34 456.471 171.374 456.004 173.374C455.604 175.307 455.404 176.84 455.404 177.974C455.404 179.307 455.704 180.34 456.304 181.074C456.904 181.807 457.937 182.174 459.404 182.174C461.404 182.174 463.004 181.474 464.204 180.074C465.404 178.607 466.604 176.374 467.804 173.374H472.004C469.537 180.707 466.671 185.64 463.404 188.174C460.204 190.64 456.871 191.874 453.404 191.874Z" fill="#EE1616"/>
<path d="M481.899 191.874C477.033 191.874 473.233 190.607 470.499 188.074C467.766 185.474 466.399 181.44 466.399 175.974C466.399 171.374 467.299 166.307 469.099 160.774C470.899 155.24 473.833 150.474 477.899 146.474C481.966 142.407 487.133 140.374 493.399 140.374C500.733 140.374 504.399 143.574 504.399 149.974C504.399 153.707 503.333 157.14 501.199 160.274C499.066 163.407 496.233 165.94 492.699 167.874C489.166 169.74 485.399 170.807 481.399 171.074C481.266 172.54 481.199 173.54 481.199 174.074C481.199 179.607 483.266 182.374 487.399 182.374C489.266 182.374 491.266 181.874 493.399 180.874C495.533 179.874 497.466 178.607 499.199 177.074C497.399 186.94 491.633 191.874 481.899 191.874ZM482.099 166.274C484.633 166.207 486.999 165.374 489.199 163.774C491.466 162.174 493.266 160.14 494.599 157.674C495.999 155.14 496.699 152.507 496.699 149.774C496.699 147.04 495.866 145.674 494.199 145.674C491.866 145.674 489.533 147.807 487.199 152.074C484.933 156.274 483.233 161.007 482.099 166.274Z" fill="#EE1616"/>
<path d="M550.6 193.074C546.4 193.074 542.7 192.34 539.5 190.874C536.3 189.407 533.833 187.374 532.1 184.774C530.367 182.107 529.5 179.04 529.5 175.574C529.5 172.64 530.1 169.974 531.3 167.574C532.567 165.174 534.233 163.274 536.3 161.874C538.433 160.474 540.767 159.774 543.3 159.774C545.633 159.774 547.6 160.374 549.2 161.574C550.8 162.707 551.8 164.307 552.2 166.374C548.733 166.374 545.967 167.307 543.9 169.174C541.833 170.974 540.8 173.44 540.8 176.574C540.8 179.44 541.667 181.74 543.4 183.474C545.133 185.207 547.433 186.074 550.3 186.074C553.833 186.074 556.733 184.907 559 182.574C561.333 180.174 562.5 177.174 562.5 173.574C562.5 170.44 561.633 167.474 559.9 164.674C558.167 161.874 555.567 158.474 552.1 154.474C548.5 150.34 545.767 146.807 543.9 143.874C542.1 140.874 541.2 137.607 541.2 134.074C541.2 130.607 542.167 127.507 544.1 124.774C546.033 121.974 548.7 119.774 552.1 118.174C555.5 116.574 559.333 115.774 563.6 115.774C569 115.774 573.3 117.04 576.5 119.574C579.767 122.107 581.4 125.507 581.4 129.774C581.4 132.574 580.7 134.84 579.3 136.574C577.9 138.307 576.067 139.174 573.8 139.174C571.267 139.174 569.233 138.14 567.7 136.074C568.967 135.14 569.967 133.907 570.7 132.374C571.433 130.84 571.8 129.24 571.8 127.574C571.8 125.44 571.167 123.74 569.9 122.474C568.633 121.207 566.9 120.574 564.7 120.574C562.033 120.574 559.833 121.54 558.1 123.474C556.433 125.34 555.6 127.74 555.6 130.674C555.6 133.34 556.367 135.84 557.9 138.174C559.433 140.44 561.833 143.374 565.1 146.974C567.767 149.84 569.9 152.307 571.5 154.374C573.167 156.44 574.567 158.84 575.7 161.574C576.9 164.24 577.5 167.14 577.5 170.274C577.5 174.54 576.3 178.407 573.9 181.874C571.567 185.34 568.333 188.074 564.2 190.074C560.133 192.074 555.6 193.074 550.6 193.074Z" fill="#EE1616"/>
<path d="M593.031 191.874C589.831 191.874 587.231 190.874 585.231 188.874C583.298 186.874 582.331 183.874 582.331 179.874C582.331 178.207 582.598 176.04 583.131 173.374L589.131 145.274H585.831L586.631 141.274H589.931L592.931 127.474L607.731 125.474L604.331 141.274H610.331L609.531 145.274H603.531L597.131 175.274C596.865 176.274 596.731 177.34 596.731 178.474C596.731 179.807 597.031 180.774 597.631 181.374C598.298 181.907 599.365 182.174 600.831 182.174C602.765 182.174 604.565 181.374 606.231 179.774C607.898 178.107 609.098 175.974 609.831 173.374H614.031C611.565 180.574 608.398 185.474 604.531 188.074C600.665 190.607 596.831 191.874 593.031 191.874Z" fill="#EE1616"/>
<path d="M619.692 191.874C616.492 191.874 613.892 190.874 611.892 188.874C609.958 186.874 608.992 183.874 608.992 179.874C608.992 178.207 609.258 176.04 609.792 173.374L616.592 141.274H630.992L623.792 175.274C623.591 176.274 623.492 177.207 623.492 178.074C623.492 180.807 624.492 182.174 626.492 182.174C628.358 182.174 629.958 181.407 631.292 179.874C632.625 178.274 633.692 176.107 634.492 173.374L641.292 141.274H655.692L648.492 175.274C648.225 176.274 648.092 177.34 648.092 178.474C648.092 179.807 648.392 180.774 648.992 181.374C649.658 181.907 650.725 182.174 652.192 182.174C654.058 182.174 655.658 181.374 656.992 179.774C658.392 178.174 659.492 176.04 660.292 173.374H664.492C662.025 180.574 658.958 185.474 655.292 188.074C651.692 190.607 648.058 191.874 644.392 191.874C641.525 191.874 639.225 191.074 637.492 189.474C635.825 187.874 634.825 185.507 634.492 182.374C632.225 186.04 629.825 188.54 627.292 189.874C624.825 191.207 622.292 191.874 619.692 191.874Z" fill="#EE1616"/>
<path d="M672.28 191.874C668.48 191.874 665.313 190.574 662.78 187.974C660.246 185.374 658.98 181.307 658.98 175.774C658.98 170.84 659.946 165.674 661.88 160.274C663.88 154.807 666.813 150.207 670.68 146.474C674.613 142.674 679.28 140.774 684.68 140.774C687.413 140.774 689.446 141.24 690.78 142.174C692.113 143.107 692.78 144.34 692.78 145.874V146.274L697.68 123.274L712.48 121.274L700.98 175.274C700.713 176.274 700.58 177.34 700.58 178.474C700.58 179.807 700.88 180.774 701.48 181.374C702.146 181.907 703.213 182.174 704.68 182.174C706.546 182.174 708.146 181.374 709.48 179.774C710.88 178.174 711.98 176.04 712.78 173.374H716.98C712.913 185.307 706.213 191.274 696.88 191.274C694.146 191.274 691.913 190.54 690.18 189.074C688.513 187.607 687.48 185.474 687.08 182.674C685.346 185.34 683.246 187.54 680.78 189.274C678.38 191.007 675.546 191.874 672.28 191.874ZM678.78 182.174C680.38 182.174 681.98 181.44 683.58 179.974C685.247 178.507 686.38 176.474 686.98 173.874V173.374L691.88 150.474C691.28 148.14 689.913 146.974 687.78 146.974C685.113 146.974 682.713 148.54 680.58 151.674C678.446 154.74 676.78 158.474 675.58 162.874C674.38 167.207 673.78 171.04 673.78 174.374C673.78 177.707 674.246 179.84 675.18 180.774C676.18 181.707 677.38 182.174 678.78 182.174Z" fill="#EE1616"/>
<path d="M729.519 135.874C727.319 135.874 725.452 135.107 723.919 133.574C722.386 132.04 721.619 130.174 721.619 127.974C721.619 125.774 722.386 123.907 723.919 122.374C725.452 120.774 727.319 119.974 729.519 119.974C731.719 119.974 733.586 120.774 735.119 122.374C736.719 123.907 737.519 125.774 737.519 127.974C737.519 130.174 736.719 132.04 735.119 133.574C733.586 135.107 731.719 135.874 729.519 135.874ZM722.719 191.874C719.519 191.874 716.919 190.874 714.919 188.874C712.986 186.874 712.019 183.874 712.019 179.874C712.019 178.207 712.286 176.04 712.819 173.374L719.619 141.274H734.019L726.819 175.274C726.552 176.274 726.419 177.34 726.419 178.474C726.419 179.807 726.719 180.774 727.319 181.374C727.986 181.907 729.052 182.174 730.519 182.174C732.452 182.174 734.252 181.374 735.919 179.774C737.586 178.107 738.786 175.974 739.519 173.374H743.719C741.252 180.574 738.086 185.474 734.219 188.074C730.352 190.607 726.519 191.874 722.719 191.874Z" fill="#EE1616"/>
<path d="M754.079 191.674C749.146 191.674 745.246 190.407 742.379 187.874C739.512 185.34 738.079 181.34 738.079 175.874C738.079 171.274 738.979 166.24 740.779 160.774C742.579 155.24 745.512 150.474 749.579 146.474C753.646 142.407 758.846 140.374 765.179 140.374C773.046 140.374 777.279 144.874 777.879 153.874C779.346 153.54 780.646 152.74 781.779 151.474C782.912 150.14 783.979 148.64 784.979 146.974H788.179C786.379 150.574 784.779 153.407 783.379 155.474C781.979 157.474 780.146 159.107 777.879 160.374C777.479 166.64 776.179 172.14 773.979 176.874C771.846 181.607 769.046 185.274 765.579 187.874C762.112 190.407 758.279 191.674 754.079 191.674ZM758.079 182.674C760.546 182.674 762.846 180.674 764.979 176.674C767.112 172.674 768.579 167.74 769.379 161.874C767.779 161.274 766.979 159.774 766.979 157.374C766.979 154.774 767.912 153.04 769.779 152.174C769.646 150.04 769.279 148.574 768.679 147.774C768.146 146.907 767.246 146.474 765.979 146.474C763.779 146.474 761.679 148.074 759.679 151.274C757.679 154.407 756.046 158.24 754.779 162.774C753.579 167.24 752.979 171.174 752.979 174.574C752.979 177.774 753.346 179.94 754.079 181.074C754.812 182.14 756.146 182.674 758.079 182.674Z" fill="#EE1616"/>
<path d="M325.755 95.7C320.555 95.7 317.955 93.4667 317.955 89C317.955 87.5333 318.155 85.8667 318.555 84C319.021 82.0667 319.655 79.6 320.455 76.6C321.388 73.4667 322.088 70.8 322.555 68.6C323.021 66.4 323.255 64.4333 323.255 62.7C323.255 58.1667 321.255 55.9 317.255 55.9C316.188 55.9 315.088 56.0333 313.955 56.3L305.955 94H291.555L305.155 30.4L319.955 28.4L315.055 51.5H315.855C318.455 51.5 320.855 50.6 323.055 48.8C325.255 47 326.955 44.7667 328.155 42.1C329.421 39.3667 330.055 36.7 330.055 34.1C330.055 31.0333 329.121 28.5333 327.255 26.6C325.455 24.6 322.721 23.6 319.055 23.6C313.655 23.6 308.922 24.5667 304.855 26.5C300.788 28.4333 297.621 31.2333 295.355 34.9C293.155 38.5667 292.055 42.9 292.055 47.9C292.055 50.3667 292.288 52.1 292.755 53.1C293.221 54.0333 293.455 54.5667 293.455 54.7C289.855 54.7 287.155 53.9667 285.355 52.5C283.621 50.9667 282.755 48.4667 282.755 45C282.755 40.7333 284.488 36.6 287.955 32.6C291.488 28.5333 295.988 25.2667 301.455 22.8C306.921 20.2667 312.388 19 317.855 19C322.855 19 327.055 19.7333 330.455 21.2C333.855 22.6667 336.388 24.6333 338.055 27.1C339.721 29.5 340.555 32.1333 340.555 35C340.555 38.1333 339.588 41.2667 337.655 44.4C335.721 47.5333 333.088 50.1 329.755 52.1C332.288 52.8333 334.055 54.0667 335.055 55.8C336.121 57.4667 336.655 59.5667 336.655 62.1C336.655 64.0333 336.421 66.1 335.955 68.3C335.488 70.4333 334.821 73.1 333.955 76.3C333.421 78.3667 332.921 80.4 332.455 82.4C331.988 84.4 331.755 86.0667 331.755 87.4C331.755 88.9333 332.088 90.3 332.755 91.5C333.488 92.7 334.455 93.5333 335.655 94C331.588 95.1333 328.288 95.7 325.755 95.7Z" fill="#EE1616"/>
<path d="M356.513 94.6C351.58 94.6 347.747 93.3333 345.013 90.8C342.28 88.2 340.913 84.1667 340.913 78.7C340.913 74.1 341.813 69.0333 343.613 63.5C345.413 57.9667 348.347 53.2 352.413 49.2C356.48 45.1333 361.647 43.1 367.913 43.1C375.247 43.1 378.913 46.3 378.913 52.7C378.913 56.4333 377.847 59.8667 375.713 63C373.58 66.1333 370.747 68.6667 367.213 70.6C363.68 72.4667 359.913 73.5333 355.913 73.8C355.78 75.8 355.713 77.1333 355.713 77.8C355.713 81.0667 356.28 83.3 357.413 84.5C358.547 85.6333 360.38 86.2 362.913 86.2C366.513 86.2 369.58 85.3667 372.113 83.7C374.713 82.0333 377.547 79.5 380.613 76.1H384.013C376.613 88.4333 367.447 94.6 356.513 94.6ZM356.713 69C359.18 68.8667 361.513 68 363.713 66.4C365.98 64.8 367.78 62.7667 369.113 60.3C370.513 57.8333 371.213 55.2333 371.213 52.5C371.213 49.7667 370.38 48.4 368.713 48.4C366.313 48.4 363.947 50.5 361.613 54.7C359.347 58.9 357.713 63.6667 356.713 69Z" fill="#EE1616"/>
<path d="M392.592 94.6C388.792 94.6 385.626 93.3 383.092 90.7C380.559 88.1 379.292 84.0333 379.292 78.5C379.292 73.5667 380.259 68.4 382.192 63C384.192 57.5333 387.126 52.9333 390.992 49.2C394.926 45.4 399.592 43.5 404.992 43.5C407.726 43.5 409.759 43.9667 411.092 44.9C412.426 45.8333 413.092 47.0667 413.092 48.6V49L417.992 26L432.792 24L421.292 78C421.026 79 420.892 80.0667 420.892 81.2C420.892 82.5333 421.192 83.5 421.792 84.1C422.459 84.6333 423.526 84.9 424.992 84.9C426.859 84.9 428.459 84.1 429.792 82.5C431.192 80.9 432.292 78.7667 433.092 76.1H437.292C433.226 88.0333 426.526 94 417.192 94C414.459 94 412.226 93.2667 410.492 91.8C408.826 90.3333 407.792 88.2 407.392 85.4C405.659 88.0667 403.559 90.2667 401.092 92C398.692 93.7333 395.859 94.6 392.592 94.6ZM399.092 84.9C400.692 84.9 402.292 84.1667 403.892 82.7C405.559 81.2333 406.692 79.2 407.292 76.6V76.1L412.192 53.2C411.592 50.8667 410.226 49.7 408.092 49.7C405.426 49.7 403.026 51.2667 400.892 54.4C398.759 57.4667 397.092 61.2 395.892 65.6C394.692 69.9333 394.092 73.7667 394.092 77.1C394.092 80.4333 394.559 82.5667 395.492 83.5C396.492 84.4333 397.692 84.9 399.092 84.9Z" fill="#EE1616"/>
<path d="M444.531 94.6C441.331 94.6 438.631 94 436.431 92.8C434.231 91.5333 432.598 89.9333 431.531 88C430.465 86 429.931 83.9333 429.931 81.8C429.931 79.6 430.465 77.7 431.531 76.1C432.531 74.4333 433.765 73.2333 435.231 72.5C437.831 67.8333 440.098 63.1333 442.031 58.4C443.965 53.6 445.798 48.4333 447.531 42.9L462.331 40.9C462.665 49.4333 463.231 58.6667 464.031 68.6C464.365 72.6 464.531 75.5 464.531 77.3C464.531 78.8333 464.398 80.1 464.131 81.1C467.265 79.3 469.665 77.6333 471.331 76.1H475.531C471.265 81.0333 466.165 85.2 460.231 88.6C458.298 90.6667 455.898 92.2 453.031 93.2C450.231 94.1333 447.398 94.6 444.531 94.6ZM441.331 86.7C443.798 86.7 445.865 85.9667 447.531 84.5C449.198 83.0333 450.031 80.6667 450.031 77.4C450.031 75.4 449.831 72.6 449.431 69C448.765 61.4 448.331 56.3 448.131 53.7C446.531 58.9667 443.831 65.2667 440.031 72.6C441.565 73.4 442.331 74.5667 442.331 76.1C442.331 77.3667 441.898 78.5 441.031 79.5C440.231 80.5 439.198 81 437.931 81C436.531 81 435.631 80.5667 435.231 79.7C435.231 82.1 435.698 83.8667 436.631 85C437.631 86.1333 439.198 86.7 441.331 86.7Z" fill="#EE1616"/>
<path d="M481.215 94.6C478.015 94.6 475.415 93.6 473.415 91.6C471.482 89.6 470.515 86.6 470.515 82.6C470.515 80.9333 470.782 78.7667 471.315 76.1L477.315 48H474.015L474.815 44H478.115L481.115 30.2L495.915 28.2L492.515 44H498.515L497.715 48H491.715L485.315 78C485.048 79 484.915 80.0667 484.915 81.2C484.915 82.5333 485.215 83.5 485.815 84.1C486.482 84.6333 487.548 84.9 489.015 84.9C490.948 84.9 492.748 84.1 494.415 82.5C496.082 80.8333 497.282 78.7 498.015 76.1H502.215C499.748 83.3 496.582 88.2 492.715 90.8C488.848 93.3333 485.015 94.6 481.215 94.6Z" fill="#EE1616"/>
<path d="M512.575 94.4C507.642 94.4 503.742 93.1333 500.875 90.6C498.008 88.0667 496.575 84.0667 496.575 78.6C496.575 74.0667 497.508 69.0333 499.375 63.5C501.242 57.9667 504.242 53.2 508.375 49.2C512.508 45.1333 517.708 43.1 523.975 43.1C532.508 43.1 536.775 48.4333 536.775 59.1V59.2C536.975 59.2667 537.342 59.3 537.875 59.3C540.075 59.3 542.608 58.7333 545.475 57.6C548.342 56.4 550.942 54.9667 553.275 53.3L554.175 56C552.242 58.0667 549.708 59.8333 546.575 61.3C543.508 62.7 540.142 63.7 536.475 64.3C535.942 70.3667 534.575 75.6667 532.375 80.2C530.175 84.7333 527.342 88.2333 523.875 90.7C520.408 93.1667 516.642 94.4 512.575 94.4ZM516.575 85.4C518.175 85.4 519.775 84.5 521.375 82.7C522.975 80.8333 524.375 78.3333 525.575 75.2C526.775 72 527.642 68.4667 528.175 64.6C526.375 64.2 525.475 62.8 525.475 60.4C525.475 57.6667 526.508 55.8667 528.575 55C528.442 52.8 528.108 51.3 527.575 50.5C527.042 49.6333 526.108 49.2 524.775 49.2C522.575 49.2 520.442 50.8 518.375 54C516.308 57.2 514.642 61.0333 513.375 65.5C512.108 69.9667 511.475 73.9 511.475 77.3C511.475 80.5 511.842 82.6667 512.575 83.8C513.308 84.8667 514.642 85.4 516.575 85.4Z" fill="#EE1616"/>
<path d="M578.02 94.6C573.954 94.6 570.954 93.5333 569.02 91.4C567.154 89.2 566.22 86.5 566.22 83.3C566.22 81.9 566.387 80.3333 566.72 78.6C567.054 76.8 567.387 75.0667 567.72 73.4C568.12 71.7333 568.387 70.6667 568.52 70.2C569.054 67.8667 569.554 65.5667 570.02 63.3C570.487 61.0333 570.72 59.2 570.72 57.8C570.72 54.4 569.52 52.7 567.12 52.7C565.387 52.7 563.854 53.5667 562.52 55.3C561.187 56.9667 560.12 59.1667 559.32 61.9L552.52 94H538.12L548.72 44H563.12L562.02 49.2C565.354 45.4667 569.254 43.6 573.72 43.6C577.12 43.6 579.82 44.5333 581.82 46.4C583.82 48.2667 584.82 51.1 584.82 54.9C584.82 56.8333 584.587 59 584.12 61.4C583.654 63.7333 582.987 66.6 582.12 70C581.587 72.0667 581.087 74.1 580.62 76.1C580.22 78.0333 580.02 79.5667 580.02 80.7C580.02 82.0333 580.32 83.0667 580.92 83.8C581.52 84.5333 582.554 84.9 584.02 84.9C586.02 84.9 587.62 84.2 588.82 82.8C590.02 81.3333 591.22 79.1 592.42 76.1H596.62C594.154 83.4333 591.287 88.3667 588.02 90.9C584.82 93.3667 581.487 94.6 578.02 94.6Z" fill="#EE1616"/>
<path d="M606.709 94.6C601.775 94.6 597.942 93.3333 595.209 90.8C592.475 88.2 591.109 84.1667 591.109 78.7C591.109 74.1 592.009 69.0333 593.809 63.5C595.609 57.9667 598.542 53.2 602.609 49.2C606.675 45.1333 611.842 43.1 618.109 43.1C625.442 43.1 629.109 46.3 629.109 52.7C629.109 56.4333 628.042 59.8667 625.909 63C623.775 66.1333 620.942 68.6667 617.409 70.6C613.875 72.4667 610.109 73.5333 606.109 73.8C605.975 75.8 605.909 77.1333 605.909 77.8C605.909 81.0667 606.475 83.3 607.609 84.5C608.742 85.6333 610.575 86.2 613.109 86.2C616.709 86.2 619.775 85.3667 622.309 83.7C624.909 82.0333 627.742 79.5 630.809 76.1H634.209C626.809 88.4333 617.642 94.6 606.709 94.6ZM606.909 69C609.375 68.8667 611.709 68 613.909 66.4C616.175 64.8 617.975 62.7667 619.309 60.3C620.709 57.8333 621.409 55.2333 621.409 52.5C621.409 49.7667 620.575 48.4 618.909 48.4C616.509 48.4 614.142 50.5 611.809 54.7C609.542 58.9 607.909 63.6667 606.909 69Z" fill="#EE1616"/>
<path d="M647.488 38.6C645.288 38.6 643.421 37.8333 641.888 36.3C640.354 34.7667 639.588 32.9 639.588 30.7C639.588 28.5 640.354 26.6333 641.888 25.1C643.421 23.5 645.288 22.7 647.488 22.7C649.688 22.7 651.554 23.5 653.088 25.1C654.688 26.6333 655.488 28.5 655.488 30.7C655.488 32.9 654.688 34.7667 653.088 36.3C651.554 37.8333 649.688 38.6 647.488 38.6ZM640.688 94.6C637.488 94.6 634.888 93.6 632.888 91.6C630.954 89.6 629.988 86.6 629.988 82.6C629.988 80.9333 630.254 78.7667 630.788 76.1L637.588 44H651.988L644.788 78C644.521 79 644.388 80.0667 644.388 81.2C644.388 82.5333 644.688 83.5 645.288 84.1C645.954 84.6333 647.021 84.9 648.488 84.9C650.421 84.9 652.221 84.1 653.888 82.5C655.554 80.8333 656.754 78.7 657.488 76.1H661.688C659.221 83.3 656.054 88.2 652.188 90.8C648.321 93.3333 644.488 94.6 640.688 94.6Z" fill="#EE1616"/>
<path d="M693.548 94.6C689.481 94.6 686.481 93.5333 684.548 91.4C682.681 89.2 681.748 86.5 681.748 83.3C681.748 81.9 681.914 80.3333 682.248 78.6C682.581 76.8 682.914 75.0667 683.248 73.4C683.648 71.7333 683.914 70.6667 684.048 70.2C684.581 67.8667 685.081 65.5667 685.548 63.3C686.014 61.0333 686.248 59.2 686.248 57.8C686.248 54.4 685.048 52.7 682.648 52.7C680.914 52.7 679.381 53.5667 678.048 55.3C676.714 56.9667 675.648 59.1667 674.848 61.9L668.048 94H653.648L664.248 44H678.648L677.548 49.2C680.881 45.4667 684.781 43.6 689.248 43.6C692.648 43.6 695.348 44.5333 697.348 46.4C699.348 48.2667 700.348 51.1 700.348 54.9C700.348 56.8333 700.114 59 699.648 61.4C699.181 63.7333 698.514 66.6 697.648 70C697.114 72.0667 696.614 74.1 696.148 76.1C695.748 78.0333 695.548 79.5667 695.548 80.7C695.548 82.0333 695.848 83.0667 696.448 83.8C697.048 84.5333 698.081 84.9 699.548 84.9C701.548 84.9 703.148 84.2 704.348 82.8C705.548 81.3333 706.748 79.1 707.948 76.1H712.148C709.681 83.4333 706.814 88.3667 703.548 90.9C700.348 93.3667 697.014 94.6 693.548 94.6Z" fill="#EE1616"/>
<path d="M719.336 94.6C715.469 94.6 712.436 93.6333 710.236 91.7C708.103 89.7 707.036 86.7333 707.036 82.8C707.036 81.2 707.203 79.6 707.536 78L714.736 44H729.136L721.936 78C721.603 79.6667 721.436 80.8667 721.436 81.6C721.436 83.8 722.569 84.9 724.836 84.9C727.903 84.9 730.736 82.9667 733.336 79.1C736.003 75.2333 738.136 70.6333 739.736 65.3C741.336 59.9667 742.136 55.3667 742.136 51.5C742.003 51.8333 741.569 52.1 740.836 52.3C740.103 52.4333 739.469 52.5 738.936 52.5C737.803 52.5 736.903 51.9667 736.236 50.9C735.636 49.8333 735.336 48.6667 735.336 47.4C735.336 45.8 735.836 44.5 736.836 43.5C737.903 42.5 739.469 42 741.536 42C743.736 42 745.336 42.8333 746.336 44.5C747.336 46.1 747.836 48.1667 747.836 50.7C747.836 56.7 746.803 63.1333 744.736 70C742.669 76.8 739.503 82.6 735.236 87.4C730.969 92.2 725.669 94.6 719.336 94.6Z" fill="#EE1616"/>
<path d="M763.642 94.6C758.709 94.6 754.876 93.3333 752.142 90.8C749.409 88.2 748.042 84.1667 748.042 78.7C748.042 74.1 748.942 69.0333 750.742 63.5C752.542 57.9667 755.476 53.2 759.542 49.2C763.609 45.1333 768.776 43.1 775.042 43.1C782.376 43.1 786.042 46.3 786.042 52.7C786.042 56.4333 784.976 59.8667 782.842 63C780.709 66.1333 777.876 68.6667 774.342 70.6C770.809 72.4667 767.042 73.5333 763.042 73.8C762.909 75.8 762.842 77.1333 762.842 77.8C762.842 81.0667 763.409 83.3 764.542 84.5C765.676 85.6333 767.509 86.2 770.042 86.2C773.642 86.2 776.709 85.3667 779.242 83.7C781.842 82.0333 784.676 79.5 787.742 76.1H791.142C783.742 88.4333 774.576 94.6 763.642 94.6ZM763.842 69C766.309 68.8667 768.642 68 770.842 66.4C773.109 64.8 774.909 62.7667 776.242 60.3C777.642 57.8333 778.342 55.2333 778.342 52.5C778.342 49.7667 777.509 48.4 775.842 48.4C773.442 48.4 771.076 50.5 768.742 54.7C766.476 58.9 764.842 63.6667 763.842 69Z" fill="#EE1616"/>
<path d="M823.821 94.6C819.755 94.6 816.755 93.5333 814.821 91.4C812.955 89.2 812.021 86.5 812.021 83.3C812.021 81.9 812.188 80.3333 812.521 78.6C812.855 76.8 813.188 75.0667 813.521 73.4C813.921 71.7333 814.188 70.6667 814.321 70.2C814.855 67.8667 815.355 65.5667 815.821 63.3C816.288 61.0333 816.521 59.2 816.521 57.8C816.521 54.4 815.321 52.7 812.921 52.7C811.188 52.7 809.655 53.5667 808.321 55.3C806.988 56.9667 805.921 59.1667 805.121 61.9L798.321 94H783.921L794.521 44H808.921L807.821 49.2C811.155 45.4667 815.055 43.6 819.521 43.6C822.921 43.6 825.621 44.5333 827.621 46.4C829.621 48.2667 830.621 51.1 830.621 54.9C830.621 56.8333 830.388 59 829.921 61.4C829.455 63.7333 828.788 66.6 827.921 70C827.388 72.0667 826.888 74.1 826.421 76.1C826.021 78.0333 825.821 79.5667 825.821 80.7C825.821 82.0333 826.121 83.0667 826.721 83.8C827.321 84.5333 828.355 84.9 829.821 84.9C831.821 84.9 833.421 84.2 834.621 82.8C835.821 81.3333 837.021 79.1 838.221 76.1H842.421C839.955 83.4333 837.088 88.3667 833.821 90.9C830.621 93.3667 827.288 94.6 823.821 94.6Z" fill="#EE1616"/>
<path d="M848.109 94.6C844.909 94.6 842.31 93.6 840.31 91.6C838.376 89.6 837.409 86.6 837.409 82.6C837.409 80.9333 837.676 78.7667 838.209 76.1L844.209 48H840.909L841.709 44H845.01L848.01 30.2L862.81 28.2L859.409 44H865.409L864.609 48H858.609L852.209 78C851.943 79 851.81 80.0667 851.81 81.2C851.81 82.5333 852.109 83.5 852.709 84.1C853.376 84.6333 854.443 84.9 855.909 84.9C857.843 84.9 859.643 84.1 861.31 82.5C862.976 80.8333 864.176 78.7 864.909 76.1H869.109C866.643 83.3 863.476 88.2 859.609 90.8C855.743 93.3333 851.909 94.6 848.109 94.6Z" fill="#EE1616"/>
<path d="M878.97 94.6C874.103 94.6 870.303 93.3333 867.57 90.8C864.836 88.2 863.47 84.1667 863.47 78.7C863.47 74.1 864.37 69.0333 866.17 63.5C867.97 57.9667 870.903 53.2 874.97 49.2C879.036 45.1333 884.203 43.1 890.47 43.1C897.803 43.1 901.47 46.3 901.47 52.7C901.47 56.4333 900.403 59.8667 898.27 63C896.136 66.1333 893.303 68.6667 889.77 70.6C886.236 72.4667 882.47 73.5333 878.47 73.8C878.336 75.2667 878.27 76.2667 878.27 76.8C878.27 82.3333 880.336 85.1 884.47 85.1C886.336 85.1 888.336 84.6 890.47 83.6C892.603 82.6 894.536 81.3333 896.27 79.8C894.47 89.6667 888.703 94.6 878.97 94.6ZM879.17 69C881.703 68.9333 884.07 68.1 886.27 66.5C888.536 64.9 890.336 62.8667 891.67 60.4C893.07 57.8667 893.77 55.2333 893.77 52.5C893.77 49.7667 892.936 48.4 891.27 48.4C888.936 48.4 886.603 50.5333 884.27 54.8C882.003 59 880.303 63.7333 879.17 69Z" fill="#EE1616"/>
</svg>
