<svg width="263" height="324" viewBox="0 0 263 324" fill="none" xmlns="http://www.w3.org/2000/svg">
<path d="M33.0218 58L46.0218 66L89.8452 55L132.022 79L65.3452 97L23.3452 72.5L33.0218 58Z" fill="#EE1616"/>
<path d="M229.522 58L216.522 66L172.845 55L130.522 79L196.345 96.5L238.345 73L229.522 58Z" fill="#EE1616"/>
<path d="M106.952 272.632L106.952 255.955L74.9193 224.5L74.9193 175.091L124.074 225.737L124.074 272.632L106.952 272.632Z" fill="#EE1616"/>
<path d="M7.84518 101.5L21.8452 110L32.8452 152L75.6739 176.387L57.8452 110L16.8452 86L7.84518 101.5Z" fill="#EE1616"/>
<path d="M254.008 101.333L240.554 108.542L229.345 151L186.845 176.5L204.345 110.5L247.122 86.3303L254.008 101.333Z" fill="#EE1616"/>
<path d="M155.845 273.5L155.845 256L187.845 224L186.845 176.5L138.845 224L138.845 273.5L155.845 273.5Z" fill="#EE1616"/>
<path d="M25.5728 40.68C23.4928 40.68 22.4528 39.7867 22.4528 38C22.4528 37.4133 22.5328 36.7467 22.6928 36C22.8795 35.2267 23.1328 34.24 23.4528 33.04C23.8261 31.7867 24.1061 30.72 24.2928 29.84C24.4795 28.96 24.5728 28.1733 24.5728 27.48C24.5728 25.6667 23.7728 24.76 22.1728 24.76C21.7461 24.76 21.3061 24.8133 20.8528 24.92L17.6528 40H11.8928L17.3328 14.56L23.2528 13.76L21.2928 23H21.6128C22.6528 23 23.6128 22.64 24.4928 21.92C25.3728 21.2 26.0528 20.3067 26.5328 19.24C27.0395 18.1467 27.2928 17.08 27.2928 16.04C27.2928 14.8133 26.9195 13.8133 26.1728 13.04C25.4528 12.24 24.3595 11.84 22.8928 11.84C20.7328 11.84 18.8395 12.2267 17.2128 13C15.5861 13.7733 14.3195 14.8933 13.4128 16.36C12.5328 17.8267 12.0928 19.56 12.0928 21.56C12.0928 22.5467 12.1861 23.24 12.3728 23.64C12.5595 24.0133 12.6528 24.2267 12.6528 24.28C11.2128 24.28 10.1328 23.9867 9.41281 23.4C8.71948 22.7867 8.37281 21.7867 8.37281 20.4C8.37281 18.6933 9.06615 17.04 10.4528 15.44C11.8661 13.8133 13.6661 12.5067 15.8528 11.52C18.0395 10.5067 20.2261 10 22.4128 10C24.4128 10 26.0928 10.2933 27.4528 10.88C28.8128 11.4667 29.8261 12.2533 30.4928 13.24C31.1595 14.2 31.4928 15.2533 31.4928 16.4C31.4928 17.6533 31.1061 18.9067 30.3328 20.16C29.5595 21.4133 28.5061 22.44 27.1728 23.24C28.1861 23.5333 28.8928 24.0267 29.2928 24.72C29.7195 25.3867 29.9328 26.2267 29.9328 27.24C29.9328 28.0133 29.8395 28.84 29.6528 29.72C29.4661 30.5733 29.1995 31.64 28.8528 32.92C28.6395 33.7467 28.4395 34.56 28.2528 35.36C28.0661 36.16 27.9728 36.8267 27.9728 37.36C27.9728 37.9733 28.1061 38.52 28.3728 39C28.6661 39.48 29.0528 39.8133 29.5328 40C27.9061 40.4533 26.5861 40.68 25.5728 40.68ZM37.8763 40.24C35.9029 40.24 34.3696 39.7333 33.2763 38.72C32.1829 37.68 31.6362 36.0667 31.6362 33.88C31.6362 32.04 31.9962 30.0133 32.7163 27.8C33.4363 25.5867 34.6096 23.68 36.2363 22.08C37.8629 20.4533 39.9296 19.64 42.4362 19.64C45.3696 19.64 46.8363 20.92 46.8363 23.48C46.8363 24.9733 46.4096 26.3467 45.5563 27.6C44.7029 28.8533 43.5696 29.8667 42.1562 30.64C40.7429 31.3867 39.2363 31.8133 37.6363 31.92C37.5829 32.72 37.5563 33.2533 37.5563 33.52C37.5563 34.8267 37.7829 35.72 38.2363 36.2C38.6896 36.6533 39.4229 36.88 40.4363 36.88C41.8763 36.88 43.1029 36.5467 44.1163 35.88C45.1563 35.2133 46.2896 34.2 47.5163 32.84H48.8763C45.9163 37.7733 42.2496 40.24 37.8763 40.24ZM37.9563 30C38.9429 29.9467 39.8763 29.6 40.7563 28.96C41.6629 28.32 42.3829 27.5067 42.9163 26.52C43.4763 25.5333 43.7563 24.4933 43.7563 23.4C43.7563 22.3067 43.4229 21.76 42.7563 21.76C41.7963 21.76 40.8496 22.6 39.9163 24.28C39.0096 25.96 38.3563 27.8667 37.9563 30ZM52.3078 40.24C50.7878 40.24 49.5211 39.72 48.5078 38.68C47.4945 37.64 46.9878 36.0133 46.9878 33.8C46.9878 31.8267 47.3745 29.76 48.1478 27.6C48.9478 25.4133 50.1211 23.5733 51.6678 22.08C53.2411 20.56 55.1078 19.8 57.2678 19.8C58.3611 19.8 59.1745 19.9867 59.7078 20.36C60.2411 20.7333 60.5078 21.2267 60.5078 21.84V22L62.4678 12.8L68.3878 12L63.7878 33.6C63.6811 34 63.6278 34.4267 63.6278 34.88C63.6278 35.4133 63.7478 35.8 63.9878 36.04C64.2545 36.2533 64.6811 36.36 65.2678 36.36C66.0145 36.36 66.6545 36.04 67.1878 35.4C67.7478 34.76 68.1878 33.9067 68.5078 32.84H70.1878C68.5611 37.6133 65.8811 40 62.1478 40C61.0545 40 60.1611 39.7067 59.4678 39.12C58.8011 38.5333 58.3878 37.68 58.2278 36.56C57.5345 37.6267 56.6945 38.5067 55.7078 39.2C54.7478 39.8933 53.6145 40.24 52.3078 40.24ZM54.9078 36.36C55.5478 36.36 56.1878 36.0667 56.8278 35.48C57.4945 34.8933 57.9478 34.08 58.1878 33.04V32.84L60.1478 23.68C59.9078 22.7467 59.3611 22.28 58.5078 22.28C57.4411 22.28 56.4811 22.9067 55.6278 24.16C54.7745 25.3867 54.1078 26.88 53.6278 28.64C53.1478 30.3733 52.9078 31.9067 52.9078 33.24C52.9078 34.5733 53.0945 35.4267 53.4678 35.8C53.8678 36.1733 54.3478 36.36 54.9078 36.36ZM73.0834 40.24C71.8034 40.24 70.7234 40 69.8434 39.52C68.9634 39.0133 68.3101 38.3733 67.8834 37.6C67.4568 36.8 67.2434 35.9733 67.2434 35.12C67.2434 34.24 67.4568 33.48 67.8834 32.84C68.2834 32.1733 68.7768 31.6933 69.3634 31.4C70.4034 29.5333 71.3101 27.6533 72.0834 25.76C72.8568 23.84 73.5901 21.7733 74.2834 19.56L80.2034 18.76C80.3368 22.1733 80.5634 25.8667 80.8834 29.84C81.0168 31.44 81.0834 32.6 81.0834 33.32C81.0834 33.9333 81.0301 34.44 80.9234 34.84C82.1768 34.12 83.1368 33.4533 83.8034 32.84H85.4834C83.7768 34.8133 81.7368 36.48 79.3634 37.84C78.5901 38.6667 77.6301 39.28 76.4834 39.68C75.3634 40.0533 74.2301 40.24 73.0834 40.24ZM71.8034 37.08C72.7901 37.08 73.6168 36.7867 74.2834 36.2C74.9501 35.6133 75.2834 34.6667 75.2834 33.36C75.2834 32.56 75.2034 31.44 75.0434 30C74.7768 26.96 74.6034 24.92 74.5234 23.88C73.8834 25.9867 72.8034 28.5067 71.2834 31.44C71.8968 31.76 72.2034 32.2267 72.2034 32.84C72.2034 33.3467 72.0301 33.8 71.6834 34.2C71.3634 34.6 70.9501 34.8 70.4434 34.8C69.8834 34.8 69.5234 34.6267 69.3634 34.28C69.3634 35.24 69.5501 35.9467 69.9234 36.4C70.3234 36.8533 70.9501 37.08 71.8034 37.08ZM87.7569 40.24C86.4769 40.24 85.4369 39.84 84.6369 39.04C83.8635 38.24 83.4769 37.04 83.4769 35.44C83.4769 34.7733 83.5835 33.9067 83.7969 32.84L86.1969 21.6H84.8769L85.1969 20H86.5169L87.7169 14.48L93.6369 13.68L92.2769 20H94.6769L94.3569 21.6H91.9569L89.3969 33.6C89.2902 34 89.2369 34.4267 89.2369 34.88C89.2369 35.4133 89.3569 35.8 89.5969 36.04C89.8635 36.2533 90.2902 36.36 90.8769 36.36C91.6502 36.36 92.3702 36.04 93.0369 35.4C93.7035 34.7333 94.1835 33.88 94.4769 32.84H96.1569C95.1702 35.72 93.9035 37.68 92.3569 38.72C90.8102 39.7333 89.2769 40.24 87.7569 40.24ZM100.301 40.16C98.3276 40.16 96.7676 39.6533 95.6209 38.64C94.4743 37.6267 93.9009 36.0267 93.9009 33.84C93.9009 32.0267 94.2743 30.0133 95.0209 27.8C95.7676 25.5867 96.9676 23.68 98.6209 22.08C100.274 20.4533 102.354 19.64 104.861 19.64C108.274 19.64 109.981 21.7733 109.981 26.04V26.08C110.061 26.1067 110.208 26.12 110.421 26.12C111.301 26.12 112.314 25.8933 113.461 25.44C114.608 24.96 115.648 24.3867 116.581 23.72L116.941 24.8C116.168 25.6267 115.154 26.3333 113.901 26.92C112.674 27.48 111.328 27.88 109.861 28.12C109.648 30.5467 109.101 32.6667 108.221 34.48C107.341 36.2933 106.208 37.6933 104.821 38.68C103.434 39.6667 101.928 40.16 100.301 40.16ZM101.901 36.56C102.541 36.56 103.181 36.2 103.821 35.48C104.461 34.7333 105.021 33.7333 105.501 32.48C105.981 31.2 106.328 29.7867 106.541 28.24C105.821 28.08 105.461 27.52 105.461 26.56C105.461 25.4667 105.874 24.7467 106.701 24.4C106.648 23.52 106.514 22.92 106.301 22.6C106.088 22.2533 105.714 22.08 105.181 22.08C104.301 22.08 103.448 22.72 102.621 24C101.794 25.28 101.128 26.8133 100.621 28.6C100.114 30.3867 99.8609 31.96 99.8609 33.32C99.8609 34.6 100.008 35.4667 100.301 35.92C100.594 36.3467 101.128 36.56 101.901 36.56ZM126.479 40.24C124.852 40.24 123.652 39.8133 122.879 38.96C122.132 38.08 121.759 37 121.759 35.72C121.759 35.16 121.826 34.5333 121.959 33.84C122.092 33.12 122.226 32.4267 122.359 31.76C122.519 31.0933 122.626 30.6667 122.679 30.48C122.892 29.5467 123.092 28.6267 123.279 27.72C123.466 26.8133 123.559 26.08 123.559 25.52C123.559 24.16 123.079 23.48 122.119 23.48C121.426 23.48 120.812 23.8267 120.279 24.52C119.746 25.1867 119.319 26.0667 118.999 27.16L116.279 40H110.519L114.759 20H120.519L120.079 22.08C121.412 20.5867 122.972 19.84 124.759 19.84C126.119 19.84 127.199 20.2133 127.999 20.96C128.799 21.7067 129.199 22.84 129.199 24.36C129.199 25.1333 129.106 26 128.919 26.96C128.732 27.8933 128.466 29.04 128.119 30.4C127.906 31.2267 127.706 32.04 127.519 32.84C127.359 33.6133 127.279 34.2267 127.279 34.68C127.279 35.2133 127.399 35.6267 127.639 35.92C127.879 36.2133 128.292 36.36 128.879 36.36C129.679 36.36 130.319 36.08 130.799 35.52C131.279 34.9333 131.759 34.04 132.239 32.84H133.919C132.932 35.7733 131.786 37.7467 130.479 38.76C129.199 39.7467 127.866 40.24 126.479 40.24ZM137.954 40.24C135.981 40.24 134.448 39.7333 133.354 38.72C132.261 37.68 131.714 36.0667 131.714 33.88C131.714 32.04 132.074 30.0133 132.794 27.8C133.514 25.5867 134.688 23.68 136.314 22.08C137.941 20.4533 140.008 19.64 142.514 19.64C145.448 19.64 146.914 20.92 146.914 23.48C146.914 24.9733 146.488 26.3467 145.634 27.6C144.781 28.8533 143.648 29.8667 142.234 30.64C140.821 31.3867 139.314 31.8133 137.714 31.92C137.661 32.72 137.634 33.2533 137.634 33.52C137.634 34.8267 137.861 35.72 138.314 36.2C138.768 36.6533 139.501 36.88 140.514 36.88C141.954 36.88 143.181 36.5467 144.194 35.88C145.234 35.2133 146.368 34.2 147.594 32.84H148.954C145.994 37.7733 142.328 40.24 137.954 40.24ZM138.034 30C139.021 29.9467 139.954 29.6 140.834 28.96C141.741 28.32 142.461 27.5067 142.994 26.52C143.554 25.5333 143.834 24.4933 143.834 23.4C143.834 22.3067 143.501 21.76 142.834 21.76C141.874 21.76 140.928 22.6 139.994 24.28C139.088 25.96 138.434 27.8667 138.034 30ZM154.266 17.84C153.386 17.84 152.639 17.5333 152.026 16.92C151.413 16.3067 151.106 15.56 151.106 14.68C151.106 13.8 151.413 13.0533 152.026 12.44C152.639 11.8 153.386 11.48 154.266 11.48C155.146 11.48 155.893 11.8 156.506 12.44C157.146 13.0533 157.466 13.8 157.466 14.68C157.466 15.56 157.146 16.3067 156.506 16.92C155.893 17.5333 155.146 17.84 154.266 17.84ZM151.546 40.24C150.266 40.24 149.226 39.84 148.426 39.04C147.653 38.24 147.266 37.04 147.266 35.44C147.266 34.7733 147.373 33.9067 147.586 32.84L150.306 20H156.066L153.186 33.6C153.079 34 153.026 34.4267 153.026 34.88C153.026 35.4133 153.146 35.8 153.386 36.04C153.653 36.2533 154.079 36.36 154.666 36.36C155.439 36.36 156.159 36.04 156.826 35.4C157.493 34.7333 157.973 33.88 158.266 32.84H159.946C158.959 35.72 157.693 37.68 156.146 38.72C154.599 39.7333 153.066 40.24 151.546 40.24ZM172.69 40.24C171.063 40.24 169.863 39.8133 169.09 38.96C168.343 38.08 167.97 37 167.97 35.72C167.97 35.16 168.037 34.5333 168.17 33.84C168.303 33.12 168.437 32.4267 168.57 31.76C168.73 31.0933 168.837 30.6667 168.89 30.48C169.103 29.5467 169.303 28.6267 169.49 27.72C169.677 26.8133 169.77 26.08 169.77 25.52C169.77 24.16 169.29 23.48 168.33 23.48C167.637 23.48 167.023 23.8267 166.49 24.52C165.957 25.1867 165.53 26.0667 165.21 27.16L162.49 40H156.73L160.97 20H166.73L166.29 22.08C167.623 20.5867 169.183 19.84 170.97 19.84C172.33 19.84 173.41 20.2133 174.21 20.96C175.01 21.7067 175.41 22.84 175.41 24.36C175.41 25.1333 175.317 26 175.13 26.96C174.943 27.8933 174.677 29.04 174.33 30.4C174.117 31.2267 173.917 32.04 173.73 32.84C173.57 33.6133 173.49 34.2267 173.49 34.68C173.49 35.2133 173.61 35.6267 173.85 35.92C174.09 36.2133 174.503 36.36 175.09 36.36C175.89 36.36 176.53 36.08 177.01 35.52C177.49 34.9333 177.97 34.04 178.45 32.84H180.13C179.143 35.7733 177.997 37.7467 176.69 38.76C175.41 39.7467 174.077 40.24 172.69 40.24ZM183.005 40.24C181.459 40.24 180.245 39.8533 179.365 39.08C178.512 38.28 178.085 37.0933 178.085 35.52C178.085 34.88 178.152 34.24 178.285 33.6L181.165 20H186.925L184.045 33.6C183.912 34.2667 183.845 34.7467 183.845 35.04C183.845 35.92 184.299 36.36 185.205 36.36C186.432 36.36 187.565 35.5867 188.605 34.04C189.672 32.4933 190.525 30.6533 191.165 28.52C191.805 26.3867 192.125 24.5467 192.125 23C192.072 23.1333 191.899 23.24 191.605 23.32C191.312 23.3733 191.059 23.4 190.845 23.4C190.392 23.4 190.032 23.1867 189.765 22.76C189.525 22.3333 189.405 21.8667 189.405 21.36C189.405 20.72 189.605 20.2 190.005 19.8C190.432 19.4 191.059 19.2 191.885 19.2C192.765 19.2 193.405 19.5333 193.805 20.2C194.205 20.84 194.405 21.6667 194.405 22.68C194.405 25.08 193.992 27.6533 193.165 30.4C192.339 33.12 191.072 35.44 189.365 37.36C187.659 39.28 185.539 40.24 183.005 40.24ZM200.728 40.24C198.754 40.24 197.221 39.7333 196.128 38.72C195.034 37.68 194.488 36.0667 194.488 33.88C194.488 32.04 194.848 30.0133 195.568 27.8C196.288 25.5867 197.461 23.68 199.088 22.08C200.714 20.4533 202.781 19.64 205.288 19.64C208.221 19.64 209.688 20.92 209.688 23.48C209.688 24.9733 209.261 26.3467 208.408 27.6C207.554 28.8533 206.421 29.8667 205.008 30.64C203.594 31.3867 202.088 31.8133 200.488 31.92C200.434 32.72 200.408 33.2533 200.408 33.52C200.408 34.8267 200.634 35.72 201.088 36.2C201.541 36.6533 202.274 36.88 203.288 36.88C204.728 36.88 205.954 36.5467 206.968 35.88C208.008 35.2133 209.141 34.2 210.368 32.84H211.728C208.768 37.7733 205.101 40.24 200.728 40.24ZM200.808 30C201.794 29.9467 202.728 29.6 203.608 28.96C204.514 28.32 205.234 27.5067 205.768 26.52C206.328 25.5333 206.608 24.4933 206.608 23.4C206.608 22.3067 206.274 21.76 205.608 21.76C204.648 21.76 203.701 22.6 202.768 24.28C201.861 25.96 201.208 27.8667 200.808 30ZM224.799 40.24C223.173 40.24 221.973 39.8133 221.199 38.96C220.453 38.08 220.079 37 220.079 35.72C220.079 35.16 220.146 34.5333 220.279 33.84C220.413 33.12 220.546 32.4267 220.679 31.76C220.839 31.0933 220.946 30.6667 220.999 30.48C221.213 29.5467 221.413 28.6267 221.599 27.72C221.786 26.8133 221.879 26.08 221.879 25.52C221.879 24.16 221.399 23.48 220.439 23.48C219.746 23.48 219.133 23.8267 218.599 24.52C218.066 25.1867 217.639 26.0667 217.319 27.16L214.599 40H208.839L213.079 20H218.839L218.399 22.08C219.733 20.5867 221.293 19.84 223.079 19.84C224.439 19.84 225.519 20.2133 226.319 20.96C227.119 21.7067 227.519 22.84 227.519 24.36C227.519 25.1333 227.426 26 227.239 26.96C227.053 27.8933 226.786 29.04 226.439 30.4C226.226 31.2267 226.026 32.04 225.839 32.84C225.679 33.6133 225.599 34.2267 225.599 34.68C225.599 35.2133 225.719 35.6267 225.959 35.92C226.199 36.2133 226.613 36.36 227.199 36.36C227.999 36.36 228.639 36.08 229.119 35.52C229.599 34.9333 230.079 34.04 230.559 32.84H232.239C231.253 35.7733 230.106 37.7467 228.799 38.76C227.519 39.7467 226.186 40.24 224.799 40.24ZM234.515 40.24C233.235 40.24 232.195 39.84 231.395 39.04C230.621 38.24 230.235 37.04 230.235 35.44C230.235 34.7733 230.341 33.9067 230.555 32.84L232.955 21.6H231.635L231.955 20H233.275L234.475 14.48L240.395 13.68L239.035 20H241.435L241.115 21.6H238.715L236.155 33.6C236.048 34 235.995 34.4267 235.995 34.88C235.995 35.4133 236.115 35.8 236.355 36.04C236.621 36.2533 237.048 36.36 237.635 36.36C238.408 36.36 239.128 36.04 239.795 35.4C240.461 34.7333 240.941 33.88 241.235 32.84H242.915C241.928 35.72 240.661 37.68 239.115 38.72C237.568 39.7333 236.035 40.24 234.515 40.24ZM246.859 40.24C244.912 40.24 243.392 39.7333 242.299 38.72C241.205 37.68 240.659 36.0667 240.659 33.88C240.659 32.04 241.019 30.0133 241.739 27.8C242.459 25.5867 243.632 23.68 245.259 22.08C246.885 20.4533 248.952 19.64 251.459 19.64C254.392 19.64 255.859 20.92 255.859 23.48C255.859 24.9733 255.432 26.3467 254.579 27.6C253.725 28.8533 252.592 29.8667 251.179 30.64C249.765 31.3867 248.259 31.8133 246.659 31.92C246.605 32.5067 246.579 32.9067 246.579 33.12C246.579 35.3333 247.405 36.44 249.059 36.44C249.805 36.44 250.605 36.24 251.459 35.84C252.312 35.44 253.085 34.9333 253.779 34.32C253.059 38.2667 250.752 40.24 246.859 40.24ZM246.939 30C247.952 29.9733 248.899 29.64 249.779 29C250.685 28.36 251.405 27.5467 251.939 26.56C252.499 25.5467 252.779 24.4933 252.779 23.4C252.779 22.3067 252.445 21.76 251.779 21.76C250.845 21.76 249.912 22.6133 248.979 24.32C248.072 26 247.392 27.8933 246.939 30Z" fill="#EE1616"/>
<path d="M39.0291 323.28C37.0824 323.28 35.5091 322.773 34.3091 321.76C33.1357 320.773 32.5491 319.467 32.5491 317.84C32.5491 316.827 32.7891 315.893 33.2691 315.04C33.7491 314.187 34.4024 313.52 35.2291 313.04C36.0557 312.533 36.9624 312.28 37.9491 312.28C38.9624 312.28 39.7757 312.533 40.3891 313.04C41.0291 313.547 41.3491 314.213 41.3491 315.04C41.3491 315.68 41.2024 316.187 40.9091 316.56C40.6691 316.24 40.3357 315.987 39.9091 315.8C39.5091 315.613 39.0824 315.52 38.6291 315.52C37.8291 315.52 37.1757 315.787 36.6691 316.32C36.1624 316.853 35.9091 317.547 35.9091 318.4C35.9091 319.253 36.1491 319.947 36.6291 320.48C37.1357 321.013 37.7624 321.28 38.5091 321.28C39.4424 321.28 40.2424 320.867 40.9091 320.04C41.5757 319.213 42.0824 317.987 42.4291 316.36L44.4291 307.52H44.2691C43.5491 308.533 42.6691 309.307 41.6291 309.84C40.6157 310.373 39.4957 310.64 38.2691 310.64C36.7224 310.64 35.3624 310.227 34.1891 309.4C33.0157 308.573 32.1091 307.4 31.4691 305.88C30.8557 304.333 30.5491 302.547 30.5491 300.52C30.5491 297.587 31.1891 294.92 32.4691 292.52C33.7491 290.093 35.5091 288.187 37.7491 286.8C39.9891 285.413 42.4557 284.72 45.1491 284.72C47.4157 284.72 49.2024 285.213 50.5091 286.2C51.8424 287.187 52.5091 288.533 52.5091 290.24C52.5091 291.387 52.2291 292.307 51.6691 293C51.1091 293.693 50.3757 294.04 49.4691 294.04C48.9624 294.04 48.4824 293.933 48.0291 293.72C47.6024 293.507 47.2424 293.2 46.9491 292.8C47.4291 292.48 47.8291 291.973 48.1491 291.28C48.4957 290.56 48.6691 289.84 48.6691 289.12C48.6691 288.32 48.4291 287.707 47.9491 287.28C47.4957 286.827 46.8424 286.6 45.9891 286.6C44.4424 286.6 42.9491 287.293 41.5091 288.68C40.0691 290.04 38.9091 291.827 38.0291 294.04C37.1491 296.253 36.7091 298.573 36.7091 301C36.7091 303 37.0291 304.533 37.6691 305.6C38.3091 306.64 39.2291 307.16 40.4291 307.16C41.8691 307.16 43.1357 306.4 44.2291 304.88C45.3491 303.36 46.2424 301.147 46.9091 298.24L51.6291 298.28L48.7091 311.72C47.8557 315.693 46.6424 318.613 45.0691 320.48C43.5224 322.347 41.5091 323.28 39.0291 323.28ZM57.7141 315.24C56.1941 315.24 54.9274 314.72 53.9141 313.68C52.9007 312.64 52.3941 311.013 52.3941 308.8C52.3941 306.827 52.7807 304.76 53.5541 302.6C54.3541 300.413 55.5274 298.573 57.0741 297.08C58.6474 295.56 60.5141 294.8 62.6741 294.8C63.7674 294.8 64.5807 294.987 65.1141 295.36C65.6474 295.733 65.9141 296.227 65.9141 296.84V297.12L66.3541 295H72.1141L69.2341 308.6C69.1274 309 69.0741 309.427 69.0741 309.88C69.0741 311.027 69.6207 311.6 70.7141 311.6C71.4607 311.6 72.1007 311.253 72.6341 310.56C73.1941 309.867 73.6341 308.96 73.9541 307.84H75.6341C74.6474 310.72 73.4207 312.68 71.9541 313.72C70.5141 314.733 69.0607 315.24 67.5941 315.24C66.4741 315.24 65.5674 314.933 64.8741 314.32C64.2074 313.68 63.8074 312.76 63.6741 311.56C62.9007 312.653 62.0341 313.547 61.0741 314.24C60.1407 314.907 59.0207 315.24 57.7141 315.24ZM60.3141 311.36C60.9807 311.36 61.6341 311.053 62.2741 310.44C62.9407 309.8 63.3941 308.933 63.6341 307.84L65.5541 298.8C65.5541 298.453 65.4207 298.12 65.1541 297.8C64.8874 297.453 64.4741 297.28 63.9141 297.28C62.8474 297.28 61.8874 297.907 61.0341 299.16C60.1807 300.387 59.5141 301.88 59.0341 303.64C58.5541 305.373 58.3141 306.907 58.3141 308.24C58.3141 309.573 58.5007 310.427 58.8741 310.8C59.2741 311.173 59.7541 311.36 60.3141 311.36ZM98.2888 315.24C96.6621 315.24 95.4621 314.813 94.6888 313.96C93.9421 313.08 93.5688 312 93.5688 310.72C93.5688 310.16 93.6354 309.533 93.7688 308.84C93.9021 308.12 94.0354 307.427 94.1687 306.76C94.3288 306.093 94.4354 305.667 94.4888 305.48C94.7021 304.547 94.9021 303.627 95.0887 302.72C95.2754 301.813 95.3688 301.08 95.3688 300.52C95.3688 299.16 94.8888 298.48 93.9288 298.48C93.2354 298.48 92.6221 298.827 92.0888 299.52C91.5554 300.187 91.1288 301.067 90.8088 302.16L88.0888 315H82.3288L85.2488 301.2C85.3288 300.88 85.3688 300.547 85.3688 300.2C85.3688 299.027 84.9688 298.44 84.1688 298.44C83.4221 298.44 82.7688 298.787 82.2088 299.48C81.6754 300.147 81.2488 301.04 80.9288 302.16L78.2088 315H72.4487L76.6888 295H82.4488L82.0088 297.08C83.3688 295.56 84.9954 294.8 86.8888 294.8C89.2354 294.8 90.6088 295.947 91.0088 298.24C92.4754 295.973 94.3288 294.84 96.5687 294.84C97.9288 294.84 99.0088 295.213 99.8088 295.96C100.609 296.707 101.009 297.84 101.009 299.36C101.009 300.133 100.915 301 100.729 301.96C100.542 302.893 100.275 304.04 99.9288 305.4C99.7154 306.227 99.5154 307.04 99.3288 307.84C99.1688 308.613 99.0888 309.227 99.0888 309.68C99.0888 310.213 99.2088 310.627 99.4488 310.92C99.6888 311.213 100.102 311.36 100.689 311.36C101.489 311.36 102.129 311.08 102.609 310.52C103.089 309.933 103.569 309.04 104.049 307.84H105.729C104.742 310.773 103.595 312.747 102.289 313.76C101.009 314.747 99.6754 315.24 98.2888 315.24ZM109.687 315.24C107.74 315.24 106.22 314.733 105.127 313.72C104.034 312.68 103.487 311.067 103.487 308.88C103.487 307.04 103.847 305.013 104.567 302.8C105.287 300.587 106.46 298.68 108.087 297.08C109.714 295.453 111.78 294.64 114.287 294.64C117.22 294.64 118.687 295.92 118.687 298.48C118.687 299.973 118.26 301.347 117.407 302.6C116.554 303.853 115.42 304.867 114.007 305.64C112.594 306.387 111.087 306.813 109.487 306.92C109.434 307.507 109.407 307.907 109.407 308.12C109.407 310.333 110.234 311.44 111.887 311.44C112.634 311.44 113.434 311.24 114.287 310.84C115.14 310.44 115.914 309.933 116.607 309.32C115.887 313.267 113.58 315.24 109.687 315.24ZM109.767 305C110.78 304.973 111.727 304.64 112.607 304C113.514 303.36 114.234 302.547 114.767 301.56C115.327 300.547 115.607 299.493 115.607 298.4C115.607 297.307 115.274 296.76 114.607 296.76C113.674 296.76 112.74 297.613 111.807 299.32C110.9 301 110.22 302.893 109.767 305ZM137.167 315.72C135.487 315.72 134.007 315.427 132.727 314.84C131.447 314.253 130.461 313.44 129.767 312.4C129.074 311.333 128.727 310.107 128.727 308.72C128.727 307.547 128.967 306.48 129.447 305.52C129.954 304.56 130.621 303.8 131.447 303.24C132.301 302.68 133.234 302.4 134.247 302.4C135.181 302.4 135.967 302.64 136.607 303.12C137.247 303.573 137.647 304.213 137.807 305.04C136.421 305.04 135.314 305.413 134.487 306.16C133.661 306.88 133.247 307.867 133.247 309.12C133.247 310.267 133.594 311.187 134.287 311.88C134.981 312.573 135.901 312.92 137.047 312.92C138.461 312.92 139.621 312.453 140.527 311.52C141.461 310.56 141.927 309.36 141.927 307.92C141.927 306.667 141.581 305.48 140.887 304.36C140.194 303.24 139.154 301.88 137.767 300.28C136.327 298.627 135.234 297.213 134.487 296.04C133.767 294.84 133.407 293.533 133.407 292.12C133.407 290.733 133.794 289.493 134.567 288.4C135.341 287.28 136.407 286.4 137.767 285.76C139.127 285.12 140.661 284.8 142.367 284.8C144.527 284.8 146.247 285.307 147.527 286.32C148.834 287.333 149.487 288.693 149.487 290.4C149.487 291.52 149.207 292.427 148.647 293.12C148.087 293.813 147.354 294.16 146.447 294.16C145.434 294.16 144.621 293.747 144.007 292.92C144.514 292.547 144.914 292.053 145.207 291.44C145.501 290.827 145.647 290.187 145.647 289.52C145.647 288.667 145.394 287.987 144.887 287.48C144.381 286.973 143.687 286.72 142.807 286.72C141.741 286.72 140.861 287.107 140.167 287.88C139.501 288.627 139.167 289.587 139.167 290.76C139.167 291.827 139.474 292.827 140.087 293.76C140.701 294.667 141.661 295.84 142.967 297.28C144.034 298.427 144.887 299.413 145.527 300.24C146.194 301.067 146.754 302.027 147.207 303.12C147.687 304.187 147.927 305.347 147.927 306.6C147.927 308.307 147.447 309.853 146.487 311.24C145.554 312.627 144.261 313.72 142.607 314.52C140.981 315.32 139.167 315.72 137.167 315.72ZM154.14 315.24C152.86 315.24 151.82 314.84 151.02 314.04C150.246 313.24 149.86 312.04 149.86 310.44C149.86 309.773 149.966 308.907 150.18 307.84L152.58 296.6H151.26L151.58 295H152.9L154.1 289.48L160.02 288.68L158.66 295H161.06L160.74 296.6H158.34L155.78 308.6C155.673 309 155.62 309.427 155.62 309.88C155.62 310.413 155.74 310.8 155.98 311.04C156.246 311.253 156.673 311.36 157.26 311.36C158.033 311.36 158.753 311.04 159.42 310.4C160.086 309.733 160.566 308.88 160.86 307.84H162.54C161.553 310.72 160.286 312.68 158.74 313.72C157.193 314.733 155.66 315.24 154.14 315.24ZM164.804 315.24C163.524 315.24 162.484 314.84 161.684 314.04C160.91 313.24 160.524 312.04 160.524 310.44C160.524 309.773 160.63 308.907 160.844 307.84L163.564 295H169.324L166.444 308.6C166.364 309 166.324 309.373 166.324 309.72C166.324 310.813 166.724 311.36 167.524 311.36C168.27 311.36 168.91 311.053 169.444 310.44C169.977 309.8 170.404 308.933 170.724 307.84L173.444 295H179.204L176.324 308.6C176.217 309 176.164 309.427 176.164 309.88C176.164 310.413 176.284 310.8 176.524 311.04C176.79 311.253 177.217 311.36 177.804 311.36C178.55 311.36 179.19 311.04 179.724 310.4C180.284 309.76 180.724 308.907 181.044 307.84H182.724C181.737 310.72 180.51 312.68 179.044 313.72C177.604 314.733 176.15 315.24 174.684 315.24C173.537 315.24 172.617 314.92 171.924 314.28C171.257 313.64 170.857 312.693 170.724 311.44C169.817 312.907 168.857 313.907 167.844 314.44C166.857 314.973 165.844 315.24 164.804 315.24ZM185.839 315.24C184.319 315.24 183.052 314.72 182.039 313.68C181.026 312.64 180.519 311.013 180.519 308.8C180.519 306.827 180.906 304.76 181.679 302.6C182.479 300.413 183.652 298.573 185.199 297.08C186.772 295.56 188.639 294.8 190.799 294.8C191.892 294.8 192.706 294.987 193.239 295.36C193.772 295.733 194.039 296.227 194.039 296.84V297L195.999 287.8L201.919 287L197.319 308.6C197.212 309 197.159 309.427 197.159 309.88C197.159 310.413 197.279 310.8 197.519 311.04C197.786 311.253 198.212 311.36 198.799 311.36C199.546 311.36 200.186 311.04 200.719 310.4C201.279 309.76 201.719 308.907 202.039 307.84H203.719C202.092 312.613 199.412 315 195.679 315C194.586 315 193.692 314.707 192.999 314.12C192.332 313.533 191.919 312.68 191.759 311.56C191.066 312.627 190.226 313.507 189.239 314.2C188.279 314.893 187.146 315.24 185.839 315.24ZM188.439 311.36C189.079 311.36 189.719 311.067 190.359 310.48C191.026 309.893 191.479 309.08 191.719 308.04V307.84L193.679 298.68C193.439 297.747 192.892 297.28 192.039 297.28C190.972 297.28 190.012 297.907 189.159 299.16C188.306 300.387 187.639 301.88 187.159 303.64C186.679 305.373 186.439 306.907 186.439 308.24C186.439 309.573 186.626 310.427 186.999 310.8C187.399 311.173 187.879 311.36 188.439 311.36ZM208.735 292.84C207.855 292.84 207.108 292.533 206.495 291.92C205.881 291.307 205.575 290.56 205.575 289.68C205.575 288.8 205.881 288.053 206.495 287.44C207.108 286.8 207.855 286.48 208.735 286.48C209.615 286.48 210.361 286.8 210.975 287.44C211.615 288.053 211.935 288.8 211.935 289.68C211.935 290.56 211.615 291.307 210.975 291.92C210.361 292.533 209.615 292.84 208.735 292.84ZM206.015 315.24C204.735 315.24 203.695 314.84 202.895 314.04C202.121 313.24 201.735 312.04 201.735 310.44C201.735 309.773 201.841 308.907 202.055 307.84L204.775 295H210.535L207.655 308.6C207.548 309 207.495 309.427 207.495 309.88C207.495 310.413 207.615 310.8 207.855 311.04C208.121 311.253 208.548 311.36 209.135 311.36C209.908 311.36 210.628 311.04 211.295 310.4C211.961 309.733 212.441 308.88 212.735 307.84H214.415C213.428 310.72 212.161 312.68 210.615 313.72C209.068 314.733 207.535 315.24 206.015 315.24ZM218.559 315.16C216.585 315.16 215.025 314.653 213.879 313.64C212.732 312.627 212.159 311.027 212.159 308.84C212.159 307 212.519 304.987 213.239 302.8C213.959 300.587 215.132 298.68 216.759 297.08C218.385 295.453 220.465 294.64 222.999 294.64C226.145 294.64 227.839 296.44 228.079 300.04C228.665 299.907 229.185 299.587 229.639 299.08C230.092 298.547 230.519 297.947 230.919 297.28H232.199C231.479 298.72 230.839 299.853 230.279 300.68C229.719 301.48 228.985 302.133 228.079 302.64C227.919 305.147 227.399 307.347 226.519 309.24C225.665 311.133 224.545 312.6 223.159 313.64C221.772 314.653 220.239 315.16 218.559 315.16ZM220.159 311.56C221.145 311.56 222.065 310.76 222.919 309.16C223.772 307.56 224.359 305.587 224.679 303.24C224.039 303 223.719 302.4 223.719 301.44C223.719 300.4 224.092 299.707 224.839 299.36C224.785 298.507 224.639 297.92 224.399 297.6C224.185 297.253 223.825 297.08 223.319 297.08C222.439 297.08 221.599 297.72 220.799 299C219.999 300.253 219.345 301.787 218.839 303.6C218.359 305.387 218.119 306.96 218.119 308.32C218.119 309.6 218.265 310.467 218.559 310.92C218.852 311.347 219.385 311.56 220.159 311.56Z" fill="#EE1616"/>
</svg>
