<svg width="271" height="584" viewBox="0 0 271 584" fill="none" xmlns="http://www.w3.org/2000/svg">
<rect x="2" y="2" width="267" height="580" rx="18" stroke="white" stroke-width="4"/>
<rect x="18.5" y="20.5" width="61" height="198" rx="29" stroke="white" stroke-width="3"/>
<circle cx="35.7682" cy="151.768" r="6.2682" stroke="white"/>
<circle cx="60.7682" cy="151.768" r="6.2682" stroke="white"/>
<rect x="129.978" y="144.625" width="11.9048" height="11.0127" stroke="white"/>
<rect x="38.5" y="173.5" width="21" height="29" rx="2.5" stroke="white"/>
<circle cx="48.9904" cy="51.2255" r="18.8266" stroke="white"/>
<circle cx="48.9899" cy="50.9899" r="27.9899" stroke="white" stroke-width="2"/>
<circle cx="49" cy="116" r="21.5" stroke="white"/>
<circle cx="48.6491" cy="115.649" r="27.6491" stroke="white" stroke-width="2"/>
<circle cx="48.8606" cy="187.5" r="22.0625" stroke="white"/>
<circle cx="48.8605" cy="187.5" r="27.5" stroke="white" stroke-width="2"/>
<rect x="43.5" y="81.5" width="10" height="4" rx="2" stroke="white"/>
<rect width="271" height="584" rx="20" fill="black" fill-opacity="0.26"/>
<mask id="path-15-outside-1_5_376" maskUnits="userSpaceOnUse" x="74" y="190" width="120" height="203" fill="black">
<rect fill="white" x="74" y="190" width="120" height="203"/>
<path d="M118.261 332.636V331.545C118.383 319.97 119.595 310.758 121.898 303.909C124.201 297.061 127.473 291.515 131.716 287.273C135.958 283.03 141.049 279.121 146.989 275.545C150.564 273.364 153.777 270.788 156.625 267.818C159.473 264.788 161.716 261.303 163.352 257.364C165.049 253.424 165.898 249.061 165.898 244.273C165.898 238.333 164.504 233.182 161.716 228.818C158.928 224.455 155.201 221.091 150.534 218.727C145.867 216.364 140.686 215.182 134.989 215.182C130.019 215.182 125.231 216.212 120.625 218.273C116.019 220.333 112.17 223.576 109.08 228C105.989 232.424 104.201 238.212 103.716 245.364H80.8068C81.2917 235.061 83.9583 226.242 88.8068 218.909C93.7159 211.576 100.17 205.97 108.17 202.091C116.231 198.212 125.17 196.273 134.989 196.273C145.655 196.273 154.928 198.394 162.807 202.636C170.746 206.879 176.867 212.697 181.17 220.091C185.534 227.485 187.716 235.909 187.716 245.364C187.716 252.03 186.686 258.061 184.625 263.455C182.625 268.848 179.716 273.667 175.898 277.909C172.14 282.152 167.595 285.909 162.261 289.182C156.928 292.515 152.655 296.03 149.443 299.727C146.231 303.364 143.898 307.697 142.443 312.727C140.989 317.758 140.201 324.03 140.08 331.545V332.636H118.261ZM129.898 386.455C125.413 386.455 121.564 384.848 118.352 381.636C115.14 378.424 113.534 374.576 113.534 370.091C113.534 365.606 115.14 361.758 118.352 358.545C121.564 355.333 125.413 353.727 129.898 353.727C134.383 353.727 138.231 355.333 141.443 358.545C144.655 361.758 146.261 365.606 146.261 370.091C146.261 373.061 145.504 375.788 143.989 378.273C142.534 380.758 140.564 382.758 138.08 384.273C135.655 385.727 132.928 386.455 129.898 386.455Z"/>
</mask>
<path d="M118.261 332.636H112.261V338.636H118.261V332.636ZM118.261 331.545L112.262 331.483L112.261 331.514V331.545H118.261ZM121.898 303.909L116.211 301.997L121.898 303.909ZM131.716 287.273L135.959 291.515L131.716 287.273ZM146.989 275.545L150.083 280.686L150.099 280.677L150.114 280.667L146.989 275.545ZM156.625 267.818L160.955 271.972L160.976 271.95L160.997 271.928L156.625 267.818ZM163.352 257.364L157.842 254.99L157.826 255.026L157.811 255.062L163.352 257.364ZM120.625 218.273L118.175 212.796L120.625 218.273ZM109.08 228L113.998 231.436H113.998L109.08 228ZM103.716 245.364V251.364H109.323L109.702 245.769L103.716 245.364ZM80.8068 245.364L74.8135 245.082L74.5178 251.364H80.8068V245.364ZM88.8068 218.909L83.8209 215.571L83.8113 215.586L83.8018 215.6L88.8068 218.909ZM108.17 202.091L105.569 196.684L105.561 196.688L105.553 196.692L108.17 202.091ZM162.807 202.636L159.962 207.919L159.971 207.924L159.979 207.928L162.807 202.636ZM181.17 220.091L175.985 223.109L175.994 223.125L176.003 223.14L181.17 220.091ZM184.625 263.455L179.02 261.313L179.01 261.341L178.999 261.369L184.625 263.455ZM175.898 277.909L171.438 273.895L171.422 273.913L171.406 273.931L175.898 277.909ZM162.261 289.182L159.123 284.068L159.102 284.081L159.081 284.094L162.261 289.182ZM149.443 299.727L153.94 303.699L153.956 303.681L153.972 303.663L149.443 299.727ZM140.08 331.545L134.08 331.449L134.08 331.497V331.545H140.08ZM140.08 332.636V338.636H146.08V332.636H140.08ZM118.352 381.636L122.595 377.394V377.394L118.352 381.636ZM118.352 358.545L122.595 362.788L118.352 358.545ZM143.989 378.273L138.866 375.149L138.838 375.195L138.811 375.242L143.989 378.273ZM138.08 384.273L141.167 389.418L141.185 389.407L141.203 389.396L138.08 384.273ZM118.261 332.636H124.261V331.545H118.261H112.261V332.636H118.261ZM118.261 331.545L124.261 331.608C124.379 320.331 125.566 311.825 127.585 305.822L121.898 303.909L116.211 301.997C113.624 309.69 112.386 319.608 112.262 331.483L118.261 331.545ZM121.898 303.909L127.585 305.822C129.652 299.674 132.491 294.982 135.959 291.515L131.716 287.273L127.473 283.03C122.456 288.048 118.749 294.448 116.211 301.997L121.898 303.909ZM131.716 287.273L135.959 291.515C139.808 287.666 144.498 284.048 150.083 280.686L146.989 275.545L143.894 270.405C137.6 274.194 132.109 278.394 127.473 283.03L131.716 287.273ZM146.989 275.545L150.114 280.667C154.123 278.221 157.742 275.321 160.955 271.972L156.625 267.818L152.295 263.665C149.811 266.254 147.005 268.506 143.863 270.424L146.989 275.545ZM156.625 267.818L160.997 271.928C164.354 268.357 166.987 264.255 168.893 259.665L163.352 257.364L157.811 255.062C156.445 258.351 154.593 261.219 152.253 263.709L156.625 267.818ZM163.352 257.364L168.863 259.737C170.918 254.966 171.898 249.782 171.898 244.273H165.898H159.898C159.898 248.339 159.18 251.883 157.842 254.99L163.352 257.364ZM165.898 244.273H171.898C171.898 237.361 170.263 231.052 166.772 225.588L161.716 228.818L156.66 232.049C158.745 235.312 159.898 239.306 159.898 244.273H165.898ZM161.716 228.818L166.772 225.588C163.4 220.31 158.859 216.218 153.245 213.375L150.534 218.727L147.823 224.08C151.543 225.964 154.456 228.599 156.66 232.049L161.716 228.818ZM150.534 218.727L153.245 213.375C147.665 210.548 141.542 209.182 134.989 209.182V215.182V221.182C139.829 221.182 144.07 222.179 147.823 224.08L150.534 218.727ZM134.989 215.182V209.182C129.161 209.182 123.539 210.396 118.175 212.796L120.625 218.273L123.075 223.75C126.923 222.028 130.877 221.182 134.989 221.182V215.182ZM120.625 218.273L118.175 212.796C112.507 215.331 107.83 219.313 104.161 224.564L109.08 228L113.998 231.436C116.511 227.839 119.531 225.335 123.075 223.75L120.625 218.273ZM109.08 228L104.161 224.564C100.272 230.13 98.2648 237.065 97.7297 244.958L103.716 245.364L109.702 245.769C110.137 239.359 111.705 234.719 113.998 231.436L109.08 228ZM103.716 245.364V239.364H80.8068V245.364V251.364H103.716V245.364ZM80.8068 245.364L86.8002 245.646C87.2431 236.233 89.6558 228.504 93.8118 222.218L88.8068 218.909L83.8018 215.6C78.2609 223.981 75.3402 233.888 74.8135 245.082L80.8068 245.364ZM88.8068 218.909L93.7928 222.247C98.1047 215.805 103.739 210.908 110.788 207.49L108.17 202.091L105.553 196.692C96.602 201.032 89.3271 207.346 83.8209 215.571L88.8068 218.909ZM108.17 202.091L110.772 207.497C117.944 204.046 125.982 202.273 134.989 202.273V196.273V190.273C124.359 190.273 114.518 192.378 105.569 196.684L108.17 202.091ZM134.989 196.273V202.273C144.853 202.273 153.111 204.23 159.962 207.919L162.807 202.636L165.651 197.354C156.745 192.558 146.458 190.273 134.989 190.273V196.273ZM162.807 202.636L159.979 207.928C166.99 211.675 172.271 216.728 175.985 223.109L181.17 220.091L186.356 217.073C181.463 208.666 174.502 202.083 165.635 197.344L162.807 202.636ZM181.17 220.091L176.003 223.14C179.768 229.519 181.716 236.87 181.716 245.364H187.716H193.716C193.716 234.948 191.301 225.451 186.338 217.041L181.17 220.091ZM187.716 245.364H181.716C181.716 251.41 180.782 256.7 179.02 261.313L184.625 263.455L190.23 265.596C192.589 259.421 193.716 252.651 193.716 245.364H187.716ZM184.625 263.455L178.999 261.369C177.261 266.058 174.745 270.221 171.438 273.895L175.898 277.909L180.357 281.923C184.687 277.113 187.989 271.639 190.251 265.54L184.625 263.455ZM175.898 277.909L171.406 273.931C168.08 277.687 164.004 281.073 159.123 284.068L162.261 289.182L165.399 294.296C171.185 290.745 176.201 286.617 180.389 281.887L175.898 277.909ZM162.261 289.182L159.081 284.094C153.379 287.658 148.609 291.54 144.914 295.792L149.443 299.727L153.972 303.663C156.702 300.521 160.477 297.373 165.441 294.27L162.261 289.182ZM149.443 299.727L144.946 295.755C141.101 300.108 138.361 305.246 136.679 311.061L142.443 312.727L148.207 314.394C149.435 310.148 151.361 306.619 153.94 303.699L149.443 299.727ZM142.443 312.727L136.679 311.061C135.028 316.77 134.207 323.612 134.08 331.449L140.08 331.545L146.079 331.642C146.195 324.449 146.949 318.745 148.207 314.394L142.443 312.727ZM140.08 331.545H134.08V332.636H140.08H146.08V331.545H140.08ZM140.08 332.636V326.636H118.261V332.636V338.636H140.08V332.636ZM129.898 386.455V380.455C127.027 380.455 124.698 379.497 122.595 377.394L118.352 381.636L114.11 385.879C118.431 390.2 123.799 392.455 129.898 392.455V386.455ZM118.352 381.636L122.595 377.394C120.492 375.291 119.534 372.962 119.534 370.091H113.534H107.534C107.534 376.19 109.789 381.558 114.11 385.879L118.352 381.636ZM113.534 370.091H119.534C119.534 367.22 120.492 364.891 122.595 362.788L118.352 358.545L114.11 354.303C109.789 358.624 107.534 363.992 107.534 370.091H113.534ZM118.352 358.545L122.595 362.788C124.698 360.685 127.027 359.727 129.898 359.727V353.727V347.727C123.799 347.727 118.431 349.982 114.11 354.303L118.352 358.545ZM129.898 353.727V359.727C132.768 359.727 135.097 360.685 137.201 362.788L141.443 358.545L145.686 354.303C141.365 349.982 135.997 347.727 129.898 347.727V353.727ZM141.443 358.545L137.201 362.788C139.304 364.891 140.261 367.22 140.261 370.091H146.261H152.261C152.261 363.992 150.007 358.624 145.686 354.303L141.443 358.545ZM146.261 370.091H140.261C140.261 371.982 139.795 373.625 138.866 375.149L143.989 378.273L149.111 381.396C151.212 377.951 152.261 374.139 152.261 370.091H146.261ZM143.989 378.273L138.811 375.242C137.863 376.861 136.603 378.146 134.956 379.15L138.08 384.273L141.203 389.396C144.526 387.37 147.205 384.655 149.167 381.304L143.989 378.273ZM138.08 384.273L134.993 379.128C133.568 379.983 131.922 380.455 129.898 380.455V386.455V392.455C133.934 392.455 137.743 391.472 141.167 389.418L138.08 384.273Z" fill="white" mask="url(#path-15-outside-1_5_376)"/>
</svg>
