<svg width="271" height="584" viewBox="0 0 271 584" fill="none" xmlns="http://www.w3.org/2000/svg">
<rect x="2" y="2" width="267" height="580" rx="18" stroke="white" stroke-width="4"/>
<rect x="14.5" y="11.5" width="69" height="225" rx="34.5" stroke="white" stroke-width="3"/>
<circle cx="36.7682" cy="161.768" r="6.2682" stroke="white"/>
<circle cx="61.7682" cy="161.768" r="6.2682" stroke="white"/>
<rect x="129.978" y="144.624" width="11.9048" height="11.0127" stroke="white"/>
<rect x="36.5" y="180.5" width="25" height="44" rx="2.5" stroke="white"/>
<circle cx="49.0107" cy="46.2701" r="20.8401" stroke="white"/>
<circle cx="49.0101" cy="46.0101" r="31.0101" stroke="white" stroke-width="2"/>
<circle cx="49.0107" cy="117.859" r="20.84" stroke="white"/>
<circle cx="49.01" cy="121.01" r="31.01" stroke="white" stroke-width="2"/>
<circle cx="49.0102" cy="202.01" r="24.8412" stroke="white"/>
<circle cx="49.01" cy="202.01" r="31.01" stroke="white" stroke-width="2"/>
<path d="M38.5342 140.79C38.9955 140.994 39.6377 141.269 40.3604 141.559C41.7924 142.132 43.588 142.777 44.9199 142.993C46.2439 143.208 47.9356 143.207 49.2734 143.155C49.9471 143.129 50.5401 143.089 50.9648 143.057C51.0119 143.053 51.0568 143.048 51.0996 143.045V147.116C51.0467 147.129 50.9884 147.146 50.9238 147.161C50.5695 147.244 50.0414 147.351 49.3584 147.442C47.9922 147.625 46.0065 147.749 43.5498 147.503C41.1779 147.266 39.3953 146.198 38.1992 145.182C37.6014 144.674 37.1535 144.18 36.8564 143.816C36.7472 143.683 36.6588 143.566 36.5908 143.474L38.208 140.644C38.303 140.686 38.4122 140.736 38.5342 140.79Z" stroke="white"/>
<path d="M61.5005 143.641L52.1001 146.804V142.858L61.5005 139.695V143.641Z" stroke="#860404"/>
<rect x="43.5" y="81.5" width="10" height="4" rx="2" stroke="white"/>
</svg>
