<svg width="270" height="627" viewBox="0 0 270 627" fill="none" xmlns="http://www.w3.org/2000/svg">
<rect x="2" y="2" width="266" height="623" rx="18" stroke="white" stroke-width="4"/>
<rect x="29.5" y="40.5" width="47" height="160" rx="23.5" stroke="white" stroke-width="3"/>
<rect x="33" y="45" width="40" height="151" rx="20" stroke="white" stroke-width="2"/>
<circle cx="52.8135" cy="64.942" r="10.0423" stroke="white"/>
<circle cx="40.9527" cy="25.9527" r="4.45274" stroke="white"/>
<circle cx="64" cy="26" r="6.5" stroke="white"/>
<circle cx="45" cy="145" r="5.5" stroke="white"/>
<rect x="129.5" y="78.5" width="11.8571" height="11.8972" stroke="white"/>
<rect x="57.5" y="139.5" width="11" height="11" stroke="white"/>
<circle cx="52.8135" cy="64.8135" r="14.8135" stroke="white" stroke-width="2"/>
<circle cx="52.8135" cy="102.942" r="10.0423" stroke="white"/>
<circle cx="52.8135" cy="102.814" r="14.8135" stroke="white" stroke-width="2"/>
<circle cx="52.8135" cy="176.942" r="10.0423" stroke="white"/>
<circle cx="52.8135" cy="176.814" r="14.8135" stroke="white" stroke-width="2"/>
<rect x="38.5" y="124.5" width="17" height="6" stroke="white"/>
<rect x="56.5" y="124.5" width="11" height="6" stroke="#860404"/>
</svg>
