<svg width="279" height="638" viewBox="0 0 279 638" fill="none" xmlns="http://www.w3.org/2000/svg">
<path d="M263 0C271.837 0 279 7.16344 279 16V622C279 630.837 271.837 638 263 638H16L15.5869 637.995C6.94127 637.776 0 630.698 0 622V16C0 7.30155 6.94127 0.22398 15.5869 0.00488281L16 0H224.624C226.886 2.49542 229.809 4 233 4C236.191 4 239.114 2.49542 241.376 0H263ZM16 4C9.37258 4 4 9.37259 4 16V622C4 628.627 9.37258 634 16 634H263C269.627 634 275 628.627 275 622V16C275 9.37258 269.627 4 263 4H16Z" fill="white"/>
<rect x="184.5" y="48.5" width="46" height="93" rx="23" transform="rotate(90 184.5 48.5)" stroke="white" stroke-width="3"/>
<rect x="181.5" y="50.5" width="42" height="88" rx="21" transform="rotate(90 181.5 50.5)" stroke="white"/>
<circle cx="116.728" cy="70.7279" r="7" stroke="white"/>
<circle cx="116.728" cy="70.7279" r="10.5" stroke="white" stroke-width="2"/>
<circle cx="159.5" cy="71.5" r="7" stroke="white"/>
<circle cx="159.5" cy="71.5" r="10.5" stroke="white" stroke-width="2"/>
<rect x="125.5" y="23.5" width="26" height="13" rx="6.5" stroke="white"/>
<rect x="129.5" y="26.5" width="18" height="7" rx="3.5" stroke="white"/>
<path d="M224.5 0.5C224.5 0.5 229.229 3.5 233 3.5C236.771 3.5 241.5 0.5 241.5 0.5" stroke="white"/>
<rect x="132.5" y="143.5" width="12" height="12" stroke="white"/>
</svg>
