<svg width="273" height="632" viewBox="0 0 273 632" fill="none" xmlns="http://www.w3.org/2000/svg">
<rect x="2" y="2" width="269" height="628" rx="18" stroke="white" stroke-width="4"/>
<circle cx="123.5" cy="23.5" r="5" stroke="white"/>
<circle cx="128.5" cy="171.5" r="5" stroke="white"/>
<circle cx="145.5" cy="171.5" r="5" stroke="white"/>
<circle cx="150.5" cy="23.5" r="5" stroke="white"/>
<rect x="202.5" y="139.5" width="12" height="12" stroke="white"/>
<rect x="65.5" y="111.5" width="6" height="12" rx="3" stroke="white"/>
<rect x="153.5" y="162.5" width="18" height="34" rx="9" transform="rotate(90 153.5 162.5)" stroke="white"/>
<rect x="197.5" y="107.5" width="21" height="19" stroke="white"/>
<circle cx="136.5" cy="116.5" r="9" stroke="white"/>
<circle cx="136.5" cy="116.5" r="13.5" stroke="white" stroke-width="2"/>
<circle cx="136.5" cy="116.5" r="20" stroke="white" stroke-width="5"/>
<circle cx="137" cy="118" r="42" stroke="white" stroke-width="2"/>
<path d="M163 207L162.991 207.671C162.635 221.72 151.135 233 137 233C122.865 233 111.365 221.72 111.009 207.671L111 207V152.248C111.969 152.985 112.969 153.681 114 154.335V207C114 219.703 124.297 230 137 230C149.703 230 160 219.703 160 207V154.335C161.031 153.681 162.031 152.985 163 152.248V207ZM137 29C151.359 29 163 40.6406 163 55V83.751C162.031 83.0144 161.031 82.3178 160 81.6641V55C160 42.2975 149.703 32 137 32C124.297 32 114 42.2975 114 55V81.6641C112.969 82.3178 111.969 83.0144 111 83.751V55C111 40.6406 122.641 29 137 29Z" fill="white"/>
<circle cx="137" cy="118" r="35" stroke="white" stroke-width="2"/>
<circle cx="136.5" cy="207.5" r="12.2759" stroke="white"/>
<circle cx="136.5" cy="207.5" r="18.5" stroke="white" stroke-width="2"/>
<circle cx="136.5" cy="53.5" r="12.2759" stroke="white"/>
<circle cx="136.5" cy="53.5" r="18.5" stroke="white" stroke-width="2"/>
<path d="M125.198 140.803C125.765 141.006 126.553 141.282 127.44 141.57C129.204 142.144 131.396 142.783 133.012 142.996C134.62 143.209 136.684 143.207 138.328 143.155C139.154 143.129 139.882 143.09 140.402 143.058C140.511 143.051 140.61 143.043 140.7 143.037V147.098C140.618 147.115 140.523 147.137 140.415 147.157C139.973 147.241 139.316 147.348 138.469 147.44C136.773 147.625 134.313 147.749 131.271 147.502C128.299 147.26 126.073 146.175 124.592 145.151C123.851 144.639 123.296 144.143 122.93 143.778C122.811 143.66 122.712 143.555 122.633 143.468L124.648 140.603C124.794 140.656 124.98 140.724 125.198 140.803Z" stroke="white"/>
<path d="M144.002 93.3373C143.435 93.134 142.647 92.8583 141.76 92.5697C139.996 91.9962 137.804 91.3574 136.188 91.1439C134.58 90.9315 132.516 90.9329 130.872 90.9847C130.046 91.0108 129.318 91.0498 128.798 91.0824C128.689 91.0892 128.59 91.0969 128.5 91.1029V87.0424C128.582 87.0253 128.677 87.0033 128.785 86.9828C129.227 86.8991 129.884 86.7918 130.731 86.6996C132.427 86.5151 134.887 86.3909 137.929 86.6381C140.901 86.8796 143.127 87.9655 144.608 88.9886C145.349 89.5005 145.904 89.9966 146.27 90.3617C146.389 90.4802 146.488 90.5855 146.567 90.6722L144.552 93.5375C144.406 93.4838 144.22 93.4157 144.002 93.3373Z" stroke="white"/>
<path d="M153.5 143.618L141.7 146.845V142.881L153.5 139.654V143.618Z" stroke="#860404"/>
</svg>
