<svg width="270" height="627" viewBox="0 0 270 627" fill="none" xmlns="http://www.w3.org/2000/svg">
<rect x="2" y="2" width="266" height="623" rx="18" stroke="white" stroke-width="4"/>
<rect x="22.5" y="39.5" width="47" height="180" rx="23.5" stroke="white" stroke-width="3"/>
<rect x="26" y="44" width="40" height="172" rx="20" stroke="white" stroke-width="2"/>
<circle cx="45.8135" cy="63.942" r="10.0423" stroke="white"/>
<circle cx="34.9527" cy="25.9527" r="4.45274" stroke="white"/>
<circle cx="58" cy="26" r="6.5" stroke="white"/>
<circle cx="39" cy="150" r="5.5" stroke="white"/>
<rect x="129.5" y="103.5" width="11.8571" height="11.8972" stroke="white"/>
<rect x="51.5" y="144.5" width="11" height="11" stroke="white"/>
<circle cx="45.8135" cy="63.8135" r="14.8135" stroke="white" stroke-width="2"/>
<circle cx="45.8135" cy="108.942" r="10.0423" stroke="white"/>
<circle cx="45.8135" cy="108.814" r="14.8135" stroke="white" stroke-width="2"/>
<circle cx="46.5" cy="195.127" r="11" stroke="white"/>
<rect x="40.5" y="186.5" width="12" height="17" rx="2.5" stroke="white"/>
<circle cx="46.5" cy="195.127" r="16.5" stroke="white" stroke-width="2"/>
<rect x="32.5" y="129.5" width="17" height="6" stroke="white"/>
<rect x="50.5" y="129.5" width="11" height="6" stroke="#860404"/>
</svg>
