<svg width="271" height="584" viewBox="0 0 271 584" fill="none" xmlns="http://www.w3.org/2000/svg">
<rect x="2" y="2" width="267" height="580" rx="18" stroke="white" stroke-width="4"/>
<rect x="18.5" y="20.5" width="60" height="197" rx="29" stroke="white" stroke-width="3"/>
<circle cx="35.7682" cy="151.768" r="6.2682" stroke="white"/>
<circle cx="60.7682" cy="151.768" r="6.2682" stroke="white"/>
<rect x="129.978" y="144.624" width="11.9048" height="11.0127" stroke="white"/>
<rect x="38.5" y="168.5" width="21" height="38" rx="2.5" stroke="white"/>
<circle cx="48.9904" cy="51.2254" r="18.8266" stroke="white"/>
<circle cx="48.9899" cy="50.9899" r="27.9899" stroke="white" stroke-width="2"/>
<circle cx="48.6496" cy="112.829" r="18.5994" stroke="white"/>
<circle cx="48.6491" cy="115.649" r="27.6491" stroke="white" stroke-width="2"/>
<circle cx="48.8606" cy="187.5" r="22.0625" stroke="white"/>
<circle cx="48.8605" cy="187.5" r="27.5" stroke="white" stroke-width="2"/>
<path d="M38.5342 131.29C38.9955 131.494 39.6377 131.769 40.3604 132.059C41.7924 132.632 43.588 133.277 44.9199 133.493C46.2439 133.708 47.9356 133.707 49.2734 133.655C49.9471 133.629 50.5401 133.589 50.9648 133.557C51.0119 133.553 51.0568 133.548 51.0996 133.545V137.616C51.0467 137.629 50.9884 137.646 50.9238 137.661C50.5695 137.744 50.0414 137.851 49.3584 137.942C47.9922 138.125 46.0065 138.249 43.5498 138.003C41.1779 137.766 39.3953 136.698 38.1992 135.682C37.6014 135.174 37.1535 134.68 36.8564 134.316C36.7472 134.183 36.6588 134.066 36.5908 133.974L38.208 131.144C38.303 131.186 38.4122 131.236 38.5342 131.29Z" stroke="white"/>
<path d="M61.5004 134.141L52.1 137.304V133.358L61.5004 130.195V134.141Z" stroke="#860404"/>
<rect x="43.5" y="81.5" width="10" height="4" rx="2" stroke="white"/>
</svg>
