<svg width="256" height="595" viewBox="0 0 256 595" fill="none" xmlns="http://www.w3.org/2000/svg">
<rect x="2" y="2" width="252" height="591" rx="18" stroke="white" stroke-width="4"/>
<rect x="25.5" y="34.5" width="52" height="163" rx="26" stroke="white" stroke-width="3"/>
<circle cx="52.5" cy="61.5" r="12" stroke="white"/>
<circle cx="39.698" cy="23.698" r="4.19795" stroke="white"/>
<circle cx="63.2677" cy="23.698" r="4.19795" stroke="white"/>
<rect x="122.5" y="131.5" width="11.1905" height="11.2389" stroke="white"/>
<circle cx="52.5" cy="61.5" r="17.5" stroke="white" stroke-width="2"/>
<circle cx="51.5" cy="111.5" r="12" stroke="white"/>
<circle cx="51.5" cy="111.5" r="17.5" stroke="white" stroke-width="2"/>
<rect x="30.6111" y="132.774" width="25.4978" height="8.37064" stroke="white"/>
<rect x="57.1089" y="132.774" width="16.6652" height="8.37064" stroke="#860404"/>
<path d="M51.5 157.5C58.1469 157.5 63.5 162.668 63.5 169C63.5 175.332 58.1469 180.5 51.5 180.5C44.8531 180.5 39.5 175.332 39.5 169C39.5 162.668 44.8531 157.5 51.5 157.5Z" stroke="white"/>
<path d="M51.5 152C61.191 152 69 159.637 69 169C69 178.363 61.191 186 51.5 186C41.809 186 34 178.363 34 169C34 159.637 41.809 152 51.5 152Z" stroke="white" stroke-width="2"/>
<rect x="45.5" y="159.5" width="12" height="19" rx="2.5" stroke="white"/>
</svg>
