<svg width="262" height="596" viewBox="0 0 262 596" fill="none" xmlns="http://www.w3.org/2000/svg">
<path d="M246.413 0.00488281C255.059 0.223982 262 7.30155 262 16V580C262 588.698 255.059 595.776 246.413 595.995L246 596H16C7.30155 596 0.223981 589.059 0.00488281 580.413L0 580V16C0 7.16344 7.16344 2.81863e-08 16 0H210.937C213.061 2.33132 215.806 3.73628 218.803 3.73633C221.8 3.73633 224.544 2.33126 226.669 0H246L246.413 0.00488281ZM16 4C9.37258 4 4 9.37258 4 16V580C4 586.627 9.37258 592 16 592H246C252.627 592 258 586.627 258 580V16C258 9.37259 252.627 4 246 4H16Z" fill="white"/>
<rect x="173.167" y="45.4059" width="42.7743" height="87.1505" rx="21.3871" transform="rotate(90 173.167 45.4059)" stroke="white" stroke-width="3"/>
<rect x="170.41" y="47.2084" width="39.1693" height="82.5771" rx="19.5846" transform="rotate(90 170.41 47.2084)" stroke="white"/>
<circle cx="109.615" cy="66.0719" r="6.52462" stroke="white"/>
<circle cx="109.616" cy="66.0719" r="9.77108" stroke="white" stroke-width="2"/>
<circle cx="149.781" cy="66.7931" r="6.52462" stroke="white"/>
<circle cx="149.781" cy="66.7931" r="9.77108" stroke="white" stroke-width="2"/>
<rect x="117.884" y="21.9859" width="24.3548" height="12.0784" rx="6.03919" stroke="white"/>
<rect x="121.64" y="24.7884" width="16.8423" height="6.47335" rx="3.23668" stroke="white"/>
<path d="M210.821 0.467102C210.821 0.467102 215.262 3.26961 218.803 3.26961C222.344 3.26961 226.785 0.467102 226.785 0.467102" stroke="white"/>
<rect x="124.5" y="127.5" width="11.2079" height="11.1442" stroke="white"/>
</svg>
